<?xml version="1.0" encoding="utf-8"?>
<svg xmlns="http://www.w3.org/2000/svg" fill="none" height="100%" overflow="visible" preserveAspectRatio="none" style="display: block;" viewBox="0 0 64 63" width="100%">
<g id="Vector">
<mask fill="black" height="64" id="path-1-outside-1_0_2502" maskUnits="userSpaceOnUse" width="65" x="-0.5" y="-0.49997">
<rect fill="white" height="64" width="65" x="-0.5" y="-0.49997"/>
<path d="M28.2691 62.4982C26.8119 62.4982 25.9832 61.7459 25.8073 60.2636C25.5941 58.4659 25.3004 56.6572 24.9375 54.8872C24.9187 54.7968 24.7186 54.5203 24.3183 54.264C24.2004 54.1884 23.9984 54.1331 23.787 54.0759C23.454 53.9856 23.078 53.8823 22.7432 53.6334C21.1288 52.4276 19.7744 52.6322 17.9149 54.3635C17.6119 54.6456 17.2789 54.8595 16.959 55.066C16.6466 55.267 16.3529 55.4569 16.1415 55.6763C15.4718 56.3751 14.7685 56.7291 14.0483 56.7309H14.0426C13.2794 56.7309 12.5311 56.3419 11.7586 55.5435C10.3443 54.0833 8.7954 52.5216 7.02575 50.7719C6.00997 49.767 5.97255 48.7327 6.90976 47.6099C7.48219 46.9258 8.02281 46.1809 8.5466 45.46C9.03111 44.7926 9.53432 44.1012 10.0693 43.443C10.4715 42.9507 10.4921 42.6741 10.1703 42.1542C9.73261 41.448 9.30797 40.6792 9.17328 39.8476C8.97312 38.6123 8.36889 38.1735 6.68902 38.0463C5.19997 37.932 3.70717 37.7052 2.25365 37.3678C1.60266 37.2166 0.598107 36.433 0.570047 35.5959C0.472772 32.7602 0.476513 29.9946 0.583142 27.3746C0.618684 26.5173 1.69245 25.7189 2.38647 25.5677C4.14304 25.1824 5.92953 24.9058 7.69358 24.7417C8.46055 24.6698 8.7318 24.4504 8.90577 23.7572C9.08349 23.0529 9.32667 22.2453 9.79996 21.5834C10.5613 20.5195 10.4809 19.7654 9.49504 18.7034C8.87397 18.0342 8.34831 17.293 7.84136 16.5757C7.51773 16.1166 7.18101 15.6446 6.83307 15.2077C6.00062 14.1678 6.00249 13.2238 6.83681 12.4015C7.21842 12.0254 7.59817 11.6492 7.97792 11.2749C9.52684 9.74278 11.1281 8.15715 12.7668 6.65633C13.3655 6.10689 14.645 6.26177 15.2156 6.63236C16.8711 7.71096 18.4462 8.88728 19.8997 9.99722C20.33 10.3254 20.517 10.342 20.951 10.0857C21.9425 9.50125 22.8367 9.1325 23.6804 8.96103C24.7092 8.75268 25.0909 8.26778 25.1956 7.04537C25.2779 6.08477 25.4351 5.12786 25.5885 4.20414C25.6839 3.62704 25.783 3.02966 25.8597 2.44519C26.0299 1.16378 26.7165 0.51478 27.9006 0.51478H27.9156C31.0134 0.52953 33.5463 0.525843 35.8865 0.50003C35.8977 0.50003 35.9108 0.50003 35.9221 0.50003C37.7572 0.50003 37.9592 2.02113 38.0247 2.52263C38.1295 3.3136 38.2529 4.11932 38.3726 4.89923C38.5055 5.76027 38.642 6.65265 38.7543 7.53581C38.8646 8.38946 39.0592 8.6439 39.7008 8.76928C40.4117 8.9094 41.4499 9.20809 42.3516 9.83313C43.1578 10.3899 43.6666 10.3217 44.6263 9.52337C45.3334 8.93522 46.0873 8.40053 46.815 7.88427C47.3388 7.51184 47.8813 7.12834 48.392 6.73377C49.4788 5.89302 50.4759 5.90961 51.3551 6.7854C53.2052 8.62546 55.1039 10.5006 56.9952 12.3591C57.8538 13.2035 57.8875 14.1383 57.0906 15.1358C55.7456 16.821 54.6793 18.2572 53.7384 19.6567C53.6317 19.8134 53.5756 20.2503 53.6691 20.6799C53.7103 20.8662 53.8356 21.0893 53.9703 21.3253C54.1593 21.6571 54.3744 22.0351 54.4455 22.4813C54.7279 24.2384 55.7044 24.9704 57.8183 25.0017C58.4281 25.0109 59.0155 25.1105 59.5842 25.2064C59.8817 25.2561 60.1623 25.3041 60.4447 25.3391C62.8205 25.6341 63.3836 25.9586 63.4677 28.4698C63.5295 30.3302 63.4902 32.2145 63.4528 34.038L63.4322 35.0576C63.4041 36.5418 62.6353 37.3623 61.1444 37.4913C59.5674 37.6296 57.8464 37.9043 55.8784 38.3321C55.7998 38.3487 55.5005 38.4574 54.9749 39.1359C54.9188 39.2079 54.8682 39.3978 54.8252 39.5655C54.7504 39.8439 54.6587 40.1924 54.4342 40.4948C53.2015 42.1523 53.4091 43.5665 55.1264 45.2222C55.4033 45.4895 55.6072 45.7845 55.8036 46.0703C55.8765 46.1754 55.9476 46.2805 56.0243 46.3838L56.0412 46.4059C57.0345 47.7408 57.5807 48.4764 57.5265 49.3485C57.4704 50.2409 56.7857 50.9581 55.6502 52.1492C54.8046 53.036 53.8861 53.8657 52.9994 54.6678C52.5299 55.0937 52.0435 55.5325 51.5777 55.9731C50.5058 56.9854 49.3797 57.0185 48.2311 56.0764C47.2546 55.2744 46.1827 54.5276 45.1482 53.8067C44.7703 53.5431 44.3925 53.2794 44.0165 53.0139C43.8444 52.8922 43.6573 52.7816 43.4702 52.6765C43.1129 52.8203 42.7594 52.9604 42.4077 53.1006C41.1768 53.5892 40.0132 54.0519 38.8983 54.594C38.8515 54.7544 38.8123 55.0678 38.7898 55.2485C38.773 55.385 38.7561 55.5159 38.7374 55.6339C38.5129 57.0296 38.2548 58.6798 38.0528 60.3207C37.832 62.1128 36.6628 62.4945 35.7088 62.4945C35.6994 62.4945 35.6901 62.4945 35.6789 62.4945C33.2526 62.4742 30.802 62.4853 28.2972 62.5H28.2729L28.2691 62.4982ZM20.7846 51.3896C21.66 51.3896 22.6178 51.6864 23.6467 52.4552C23.7533 52.5345 23.9722 52.5935 24.1854 52.6525C24.4847 52.7337 24.8233 52.8258 25.1357 53.0287C25.4631 53.2388 26.2432 53.8141 26.4041 54.5958C26.7763 56.4064 27.0756 58.2557 27.2945 60.0939C27.388 60.8775 27.6294 61.025 28.2616 61.025H28.286C30.7964 61.0103 33.2507 61.0011 35.6882 61.0195C36.2532 61.0342 36.472 60.8923 36.5637 60.1437C36.7695 58.4788 37.0295 56.812 37.2558 55.4034C37.2727 55.302 37.2858 55.1895 37.3007 55.0715C37.3831 54.4023 37.4766 53.6445 38.0902 53.3402C39.3005 52.741 40.537 52.2506 41.8446 51.7306C42.3029 51.5481 42.7669 51.3637 43.2383 51.172L43.59 51.0282L43.9155 51.2236C43.9884 51.2679 44.0688 51.314 44.153 51.3619C44.3794 51.491 44.6357 51.6366 44.8882 51.8173C45.2586 52.081 45.6327 52.3428 46.0069 52.6027C47.0657 53.3402 48.1619 54.1054 49.1833 54.9425C49.7576 55.4126 50.0101 55.4071 50.5376 54.9074C51.0147 54.4576 51.5066 54.0114 51.9837 53.5818C52.8517 52.7982 53.7477 51.9869 54.5558 51.1388C55.3658 50.2888 56.0056 49.6177 56.0281 49.26C56.0486 48.9208 55.5641 48.2681 54.829 47.2798L54.8121 47.2577C54.7261 47.1415 54.6419 47.0198 54.5596 46.9C54.3968 46.664 54.2453 46.4428 54.0751 46.2787C51.834 44.1178 51.5459 41.8776 53.2221 39.6245C53.2782 39.5489 53.3287 39.359 53.3736 39.1931C53.4503 38.9073 53.5438 38.5496 53.7814 38.2417C54.3856 37.4618 54.9655 37.0193 55.551 36.8921C57.5807 36.4496 59.3672 36.1657 61.0078 36.0218C61.728 35.9592 61.9169 35.7545 61.93 35.0299L61.9506 34.0066C61.988 32.2034 62.0273 30.3375 61.9675 28.5178C61.9525 28.0845 61.9263 27.2806 61.7729 27.1276C61.6158 26.9708 60.86 26.8787 60.2539 26.8031C59.9396 26.7643 59.6291 26.7109 59.3279 26.6592C58.7929 26.5689 58.286 26.4822 57.7921 26.4749C54.9449 26.4306 53.3661 25.199 52.9658 22.7099C52.9358 22.5237 52.803 22.2895 52.6627 22.0425C52.4887 21.7364 52.2905 21.3898 52.2044 20.9823C52.0678 20.3518 52.0735 19.4575 52.4906 18.8362C53.4559 17.4054 54.5427 15.9378 55.914 14.2194C56.2918 13.7456 56.1964 13.6515 55.9383 13.399C54.0433 11.5386 52.1445 9.66166 50.2907 7.81974C50.04 7.57084 49.9035 7.4344 49.3142 7.88981C48.7792 8.30465 48.2236 8.69737 47.6867 9.07903C46.9815 9.57869 46.2519 10.0968 45.5897 10.6462C44.6039 11.4667 43.2476 12.2521 41.4892 11.0371C40.9504 10.6647 40.2096 10.3715 39.4034 10.2129C37.7516 9.88659 37.3924 8.70843 37.2652 7.71834C37.153 6.85177 37.0183 5.97046 36.8873 5.1168C36.7657 4.32951 36.6423 3.51642 36.5356 2.71069C36.4365 1.96582 36.2794 1.96766 35.8959 1.97135C33.5482 1.99532 31.0078 2.00085 27.9006 1.9861C27.562 1.9861 27.4198 1.98425 27.3357 2.63141C27.2552 3.23801 27.1542 3.84829 27.0569 4.43645C26.9091 5.33252 26.7558 6.25993 26.6791 7.16521C26.578 8.33968 26.1889 9.95113 23.9759 10.4028C23.2987 10.5411 22.5598 10.8509 21.7124 11.3487C20.7397 11.9221 19.896 11.8631 18.9756 11.1606C17.5445 10.0673 15.9975 8.91125 14.3831 7.85846C14.2634 7.78471 13.8893 7.74231 13.7265 7.77918C12.1252 9.24681 10.552 10.8048 9.03111 12.3111C8.64949 12.6873 8.26974 13.0652 7.88813 13.4414C7.67674 13.6497 7.57198 13.753 8.00037 14.2913C8.37637 14.7615 8.72432 15.2519 9.06104 15.7276C9.56238 16.4356 10.0375 17.1067 10.5913 17.7041C12.0373 19.2621 12.1757 20.8072 11.0159 22.4297C10.6867 22.8906 10.494 23.5359 10.3518 24.1075C10.0244 25.4092 9.22192 26.0748 7.82826 26.2057C6.12595 26.3642 4.40306 26.6316 2.70449 27.004C2.51555 27.0446 2.16012 27.3341 2.07033 27.4889C1.96744 30.0389 1.9637 32.7289 2.05723 35.4872C2.13767 35.6347 2.44633 35.8928 2.59038 35.9278C3.96906 36.2468 5.38516 36.4625 6.79939 36.5713C8.38011 36.693 10.2452 37.1465 10.6455 39.6116C10.739 40.1906 11.0832 40.8045 11.4424 41.3816C12.0971 42.4363 12.0298 43.384 11.2329 44.3648C10.7222 44.9917 10.2321 45.6647 9.7588 46.3155C9.22005 47.0567 8.66446 47.8219 8.06023 48.5446C7.59069 49.1051 7.63933 49.2895 8.08081 49.7265C9.85982 51.4854 11.4143 53.0526 12.8361 54.5221C13.3056 55.007 13.7097 55.2541 14.0389 55.2541C14.3326 55.2541 14.6731 55.0531 15.0491 54.6604C15.382 54.3138 15.7655 54.0667 16.1378 53.827C16.4165 53.6482 16.6784 53.4785 16.8842 53.2868C17.8588 52.3815 19.1795 51.3877 20.7808 51.3877L20.7846 51.3896ZM31.9095 43.4688C25.3696 43.4688 19.8025 38.0684 19.737 31.6392C19.7033 28.4293 20.9323 25.411 23.1959 23.1377C25.4949 20.8274 28.604 19.5405 31.9487 19.5128C31.9824 19.5128 32.018 19.5128 32.0516 19.5128C38.6308 19.5128 44.0221 24.8136 44.095 31.3774C44.1306 34.5561 42.8885 37.5706 40.6025 39.8624C38.3016 42.1689 35.2411 43.4503 31.9824 43.4706C31.9581 43.4706 31.9338 43.4706 31.9095 43.4706V43.4688ZM31.9618 20.9879C29.0174 21.0118 26.2825 22.1439 24.264 24.1702C22.2811 26.1614 21.2055 28.8091 21.2335 31.6226C21.2915 37.2572 26.174 41.9919 31.9095 41.9919C31.93 41.9919 31.9525 41.9919 31.9731 41.9919C34.8296 41.9753 37.5159 40.8506 39.5343 38.8262C41.5397 36.8147 42.6284 34.1744 42.5985 31.3903C42.5368 25.6341 37.8133 20.986 32.0516 20.986C32.0217 20.986 31.9918 20.986 31.9618 20.986V20.9879Z"/>
</mask>
<path d="M28.2691 62.4982C26.8119 62.4982 25.9832 61.7459 25.8073 60.2636C25.5941 58.4659 25.3004 56.6572 24.9375 54.8872C24.9187 54.7968 24.7186 54.5203 24.3183 54.264C24.2004 54.1884 23.9984 54.1331 23.787 54.0759C23.454 53.9856 23.078 53.8823 22.7432 53.6334C21.1288 52.4276 19.7744 52.6322 17.9149 54.3635C17.6119 54.6456 17.2789 54.8595 16.959 55.066C16.6466 55.267 16.3529 55.4569 16.1415 55.6763C15.4718 56.3751 14.7685 56.7291 14.0483 56.7309H14.0426C13.2794 56.7309 12.5311 56.3419 11.7586 55.5435C10.3443 54.0833 8.7954 52.5216 7.02575 50.7719C6.00997 49.767 5.97255 48.7327 6.90976 47.6099C7.48219 46.9258 8.02281 46.1809 8.5466 45.46C9.03111 44.7926 9.53432 44.1012 10.0693 43.443C10.4715 42.9507 10.4921 42.6741 10.1703 42.1542C9.73261 41.448 9.30797 40.6792 9.17328 39.8476C8.97312 38.6123 8.36889 38.1735 6.68902 38.0463C5.19997 37.932 3.70717 37.7052 2.25365 37.3678C1.60266 37.2166 0.598107 36.433 0.570047 35.5959C0.472772 32.7602 0.476513 29.9946 0.583142 27.3746C0.618684 26.5173 1.69245 25.7189 2.38647 25.5677C4.14304 25.1824 5.92953 24.9058 7.69358 24.7417C8.46055 24.6698 8.7318 24.4504 8.90577 23.7572C9.08349 23.0529 9.32667 22.2453 9.79996 21.5834C10.5613 20.5195 10.4809 19.7654 9.49504 18.7034C8.87397 18.0342 8.34831 17.293 7.84136 16.5757C7.51773 16.1166 7.18101 15.6446 6.83307 15.2077C6.00062 14.1678 6.00249 13.2238 6.83681 12.4015C7.21842 12.0254 7.59817 11.6492 7.97792 11.2749C9.52684 9.74278 11.1281 8.15715 12.7668 6.65633C13.3655 6.10689 14.645 6.26177 15.2156 6.63236C16.8711 7.71096 18.4462 8.88728 19.8997 9.99722C20.33 10.3254 20.517 10.342 20.951 10.0857C21.9425 9.50125 22.8367 9.1325 23.6804 8.96103C24.7092 8.75268 25.0909 8.26778 25.1956 7.04537C25.2779 6.08477 25.4351 5.12786 25.5885 4.20414C25.6839 3.62704 25.783 3.02966 25.8597 2.44519C26.0299 1.16378 26.7165 0.51478 27.9006 0.51478H27.9156C31.0134 0.52953 33.5463 0.525843 35.8865 0.50003C35.8977 0.50003 35.9108 0.50003 35.9221 0.50003C37.7572 0.50003 37.9592 2.02113 38.0247 2.52263C38.1295 3.3136 38.2529 4.11932 38.3726 4.89923C38.5055 5.76027 38.642 6.65265 38.7543 7.53581C38.8646 8.38946 39.0592 8.6439 39.7008 8.76928C40.4117 8.9094 41.4499 9.20809 42.3516 9.83313C43.1578 10.3899 43.6666 10.3217 44.6263 9.52337C45.3334 8.93522 46.0873 8.40053 46.815 7.88427C47.3388 7.51184 47.8813 7.12834 48.392 6.73377C49.4788 5.89302 50.4759 5.90961 51.3551 6.7854C53.2052 8.62546 55.1039 10.5006 56.9952 12.3591C57.8538 13.2035 57.8875 14.1383 57.0906 15.1358C55.7456 16.821 54.6793 18.2572 53.7384 19.6567C53.6317 19.8134 53.5756 20.2503 53.6691 20.6799C53.7103 20.8662 53.8356 21.0893 53.9703 21.3253C54.1593 21.6571 54.3744 22.0351 54.4455 22.4813C54.7279 24.2384 55.7044 24.9704 57.8183 25.0017C58.4281 25.0109 59.0155 25.1105 59.5842 25.2064C59.8817 25.2561 60.1623 25.3041 60.4447 25.3391C62.8205 25.6341 63.3836 25.9586 63.4677 28.4698C63.5295 30.3302 63.4902 32.2145 63.4528 34.038L63.4322 35.0576C63.4041 36.5418 62.6353 37.3623 61.1444 37.4913C59.5674 37.6296 57.8464 37.9043 55.8784 38.3321C55.7998 38.3487 55.5005 38.4574 54.9749 39.1359C54.9188 39.2079 54.8682 39.3978 54.8252 39.5655C54.7504 39.8439 54.6587 40.1924 54.4342 40.4948C53.2015 42.1523 53.4091 43.5665 55.1264 45.2222C55.4033 45.4895 55.6072 45.7845 55.8036 46.0703C55.8765 46.1754 55.9476 46.2805 56.0243 46.3838L56.0412 46.4059C57.0345 47.7408 57.5807 48.4764 57.5265 49.3485C57.4704 50.2409 56.7857 50.9581 55.6502 52.1492C54.8046 53.036 53.8861 53.8657 52.9994 54.6678C52.5299 55.0937 52.0435 55.5325 51.5777 55.9731C50.5058 56.9854 49.3797 57.0185 48.2311 56.0764C47.2546 55.2744 46.1827 54.5276 45.1482 53.8067C44.7703 53.5431 44.3925 53.2794 44.0165 53.0139C43.8444 52.8922 43.6573 52.7816 43.4702 52.6765C43.1129 52.8203 42.7594 52.9604 42.4077 53.1006C41.1768 53.5892 40.0132 54.0519 38.8983 54.594C38.8515 54.7544 38.8123 55.0678 38.7898 55.2485C38.773 55.385 38.7561 55.5159 38.7374 55.6339C38.5129 57.0296 38.2548 58.6798 38.0528 60.3207C37.832 62.1128 36.6628 62.4945 35.7088 62.4945C35.6994 62.4945 35.6901 62.4945 35.6789 62.4945C33.2526 62.4742 30.802 62.4853 28.2972 62.5H28.2729L28.2691 62.4982ZM20.7846 51.3896C21.66 51.3896 22.6178 51.6864 23.6467 52.4552C23.7533 52.5345 23.9722 52.5935 24.1854 52.6525C24.4847 52.7337 24.8233 52.8258 25.1357 53.0287C25.4631 53.2388 26.2432 53.8141 26.4041 54.5958C26.7763 56.4064 27.0756 58.2557 27.2945 60.0939C27.388 60.8775 27.6294 61.025 28.2616 61.025H28.286C30.7964 61.0103 33.2507 61.0011 35.6882 61.0195C36.2532 61.0342 36.472 60.8923 36.5637 60.1437C36.7695 58.4788 37.0295 56.812 37.2558 55.4034C37.2727 55.302 37.2858 55.1895 37.3007 55.0715C37.3831 54.4023 37.4766 53.6445 38.0902 53.3402C39.3005 52.741 40.537 52.2506 41.8446 51.7306C42.3029 51.5481 42.7669 51.3637 43.2383 51.172L43.59 51.0282L43.9155 51.2236C43.9884 51.2679 44.0688 51.314 44.153 51.3619C44.3794 51.491 44.6357 51.6366 44.8882 51.8173C45.2586 52.081 45.6327 52.3428 46.0069 52.6027C47.0657 53.3402 48.1619 54.1054 49.1833 54.9425C49.7576 55.4126 50.0101 55.4071 50.5376 54.9074C51.0147 54.4576 51.5066 54.0114 51.9837 53.5818C52.8517 52.7982 53.7477 51.9869 54.5558 51.1388C55.3658 50.2888 56.0056 49.6177 56.0281 49.26C56.0486 48.9208 55.5641 48.2681 54.829 47.2798L54.8121 47.2577C54.7261 47.1415 54.6419 47.0198 54.5596 46.9C54.3968 46.664 54.2453 46.4428 54.0751 46.2787C51.834 44.1178 51.5459 41.8776 53.2221 39.6245C53.2782 39.5489 53.3287 39.359 53.3736 39.1931C53.4503 38.9073 53.5438 38.5496 53.7814 38.2417C54.3856 37.4618 54.9655 37.0193 55.551 36.8921C57.5807 36.4496 59.3672 36.1657 61.0078 36.0218C61.728 35.9592 61.9169 35.7545 61.93 35.0299L61.9506 34.0066C61.988 32.2034 62.0273 30.3375 61.9675 28.5178C61.9525 28.0845 61.9263 27.2806 61.7729 27.1276C61.6158 26.9708 60.86 26.8787 60.2539 26.8031C59.9396 26.7643 59.6291 26.7109 59.3279 26.6592C58.7929 26.5689 58.286 26.4822 57.7921 26.4749C54.9449 26.4306 53.3661 25.199 52.9658 22.7099C52.9358 22.5237 52.803 22.2895 52.6627 22.0425C52.4887 21.7364 52.2905 21.3898 52.2044 20.9823C52.0678 20.3518 52.0735 19.4575 52.4906 18.8362C53.4559 17.4054 54.5427 15.9378 55.914 14.2194C56.2918 13.7456 56.1964 13.6515 55.9383 13.399C54.0433 11.5386 52.1445 9.66166 50.2907 7.81974C50.04 7.57084 49.9035 7.4344 49.3142 7.88981C48.7792 8.30465 48.2236 8.69737 47.6867 9.07903C46.9815 9.57869 46.2519 10.0968 45.5897 10.6462C44.6039 11.4667 43.2476 12.2521 41.4892 11.0371C40.9504 10.6647 40.2096 10.3715 39.4034 10.2129C37.7516 9.88659 37.3924 8.70843 37.2652 7.71834C37.153 6.85177 37.0183 5.97046 36.8873 5.1168C36.7657 4.32951 36.6423 3.51642 36.5356 2.71069C36.4365 1.96582 36.2794 1.96766 35.8959 1.97135C33.5482 1.99532 31.0078 2.00085 27.9006 1.9861C27.562 1.9861 27.4198 1.98425 27.3357 2.63141C27.2552 3.23801 27.1542 3.84829 27.0569 4.43645C26.9091 5.33252 26.7558 6.25993 26.6791 7.16521C26.578 8.33968 26.1889 9.95113 23.9759 10.4028C23.2987 10.5411 22.5598 10.8509 21.7124 11.3487C20.7397 11.9221 19.896 11.8631 18.9756 11.1606C17.5445 10.0673 15.9975 8.91125 14.3831 7.85846C14.2634 7.78471 13.8893 7.74231 13.7265 7.77918C12.1252 9.24681 10.552 10.8048 9.03111 12.3111C8.64949 12.6873 8.26974 13.0652 7.88813 13.4414C7.67674 13.6497 7.57198 13.753 8.00037 14.2913C8.37637 14.7615 8.72432 15.2519 9.06104 15.7276C9.56238 16.4356 10.0375 17.1067 10.5913 17.7041C12.0373 19.2621 12.1757 20.8072 11.0159 22.4297C10.6867 22.8906 10.494 23.5359 10.3518 24.1075C10.0244 25.4092 9.22192 26.0748 7.82826 26.2057C6.12595 26.3642 4.40306 26.6316 2.70449 27.004C2.51555 27.0446 2.16012 27.3341 2.07033 27.4889C1.96744 30.0389 1.9637 32.7289 2.05723 35.4872C2.13767 35.6347 2.44633 35.8928 2.59038 35.9278C3.96906 36.2468 5.38516 36.4625 6.79939 36.5713C8.38011 36.693 10.2452 37.1465 10.6455 39.6116C10.739 40.1906 11.0832 40.8045 11.4424 41.3816C12.0971 42.4363 12.0298 43.384 11.2329 44.3648C10.7222 44.9917 10.2321 45.6647 9.7588 46.3155C9.22005 47.0567 8.66446 47.8219 8.06023 48.5446C7.59069 49.1051 7.63933 49.2895 8.08081 49.7265C9.85982 51.4854 11.4143 53.0526 12.8361 54.5221C13.3056 55.007 13.7097 55.2541 14.0389 55.2541C14.3326 55.2541 14.6731 55.0531 15.0491 54.6604C15.382 54.3138 15.7655 54.0667 16.1378 53.827C16.4165 53.6482 16.6784 53.4785 16.8842 53.2868C17.8588 52.3815 19.1795 51.3877 20.7808 51.3877L20.7846 51.3896ZM31.9095 43.4688C25.3696 43.4688 19.8025 38.0684 19.737 31.6392C19.7033 28.4293 20.9323 25.411 23.1959 23.1377C25.4949 20.8274 28.604 19.5405 31.9487 19.5128C31.9824 19.5128 32.018 19.5128 32.0516 19.5128C38.6308 19.5128 44.0221 24.8136 44.095 31.3774C44.1306 34.5561 42.8885 37.5706 40.6025 39.8624C38.3016 42.1689 35.2411 43.4503 31.9824 43.4706C31.9581 43.4706 31.9338 43.4706 31.9095 43.4706V43.4688ZM31.9618 20.9879C29.0174 21.0118 26.2825 22.1439 24.264 24.1702C22.2811 26.1614 21.2055 28.8091 21.2335 31.6226C21.2915 37.2572 26.174 41.9919 31.9095 41.9919C31.93 41.9919 31.9525 41.9919 31.9731 41.9919C34.8296 41.9753 37.5159 40.8506 39.5343 38.8262C41.5397 36.8147 42.6284 34.1744 42.5985 31.3903C42.5368 25.6341 37.8133 20.986 32.0516 20.986C32.0217 20.986 31.9918 20.986 31.9618 20.986V20.9879Z" fill="var(--fill-0, #19191B)"/>
<path d="M28.2691 62.4982C26.8119 62.4982 25.9832 61.7459 25.8073 60.2636C25.5941 58.4659 25.3004 56.6572 24.9375 54.8872C24.9187 54.7968 24.7186 54.5203 24.3183 54.264C24.2004 54.1884 23.9984 54.1331 23.787 54.0759C23.454 53.9856 23.078 53.8823 22.7432 53.6334C21.1288 52.4276 19.7744 52.6322 17.9149 54.3635C17.6119 54.6456 17.2789 54.8595 16.959 55.066C16.6466 55.267 16.3529 55.4569 16.1415 55.6763C15.4718 56.3751 14.7685 56.7291 14.0483 56.7309H14.0426C13.2794 56.7309 12.5311 56.3419 11.7586 55.5435C10.3443 54.0833 8.7954 52.5216 7.02575 50.7719C6.00997 49.767 5.97255 48.7327 6.90976 47.6099C7.48219 46.9258 8.02281 46.1809 8.5466 45.46C9.03111 44.7926 9.53432 44.1012 10.0693 43.443C10.4715 42.9507 10.4921 42.6741 10.1703 42.1542C9.73261 41.448 9.30797 40.6792 9.17328 39.8476C8.97312 38.6123 8.36889 38.1735 6.68902 38.0463C5.19997 37.932 3.70717 37.7052 2.25365 37.3678C1.60266 37.2166 0.598107 36.433 0.570047 35.5959C0.472772 32.7602 0.476513 29.9946 0.583142 27.3746C0.618684 26.5173 1.69245 25.7189 2.38647 25.5677C4.14304 25.1824 5.92953 24.9058 7.69358 24.7417C8.46055 24.6698 8.7318 24.4504 8.90577 23.7572C9.08349 23.0529 9.32667 22.2453 9.79996 21.5834C10.5613 20.5195 10.4809 19.7654 9.49504 18.7034C8.87397 18.0342 8.34831 17.293 7.84136 16.5757C7.51773 16.1166 7.18101 15.6446 6.83307 15.2077C6.00062 14.1678 6.00249 13.2238 6.83681 12.4015C7.21842 12.0254 7.59817 11.6492 7.97792 11.2749C9.52684 9.74278 11.1281 8.15715 12.7668 6.65633C13.3655 6.10689 14.645 6.26177 15.2156 6.63236C16.8711 7.71096 18.4462 8.88728 19.8997 9.99722C20.33 10.3254 20.517 10.342 20.951 10.0857C21.9425 9.50125 22.8367 9.1325 23.6804 8.96103C24.7092 8.75268 25.0909 8.26778 25.1956 7.04537C25.2779 6.08477 25.4351 5.12786 25.5885 4.20414C25.6839 3.62704 25.783 3.02966 25.8597 2.44519C26.0299 1.16378 26.7165 0.51478 27.9006 0.51478H27.9156C31.0134 0.52953 33.5463 0.525843 35.8865 0.50003C35.8977 0.50003 35.9108 0.50003 35.9221 0.50003C37.7572 0.50003 37.9592 2.02113 38.0247 2.52263C38.1295 3.3136 38.2529 4.11932 38.3726 4.89923C38.5055 5.76027 38.642 6.65265 38.7543 7.53581C38.8646 8.38946 39.0592 8.6439 39.7008 8.76928C40.4117 8.9094 41.4499 9.20809 42.3516 9.83313C43.1578 10.3899 43.6666 10.3217 44.6263 9.52337C45.3334 8.93522 46.0873 8.40053 46.815 7.88427C47.3388 7.51184 47.8813 7.12834 48.392 6.73377C49.4788 5.89302 50.4759 5.90961 51.3551 6.7854C53.2052 8.62546 55.1039 10.5006 56.9952 12.3591C57.8538 13.2035 57.8875 14.1383 57.0906 15.1358C55.7456 16.821 54.6793 18.2572 53.7384 19.6567C53.6317 19.8134 53.5756 20.2503 53.6691 20.6799C53.7103 20.8662 53.8356 21.0893 53.9703 21.3253C54.1593 21.6571 54.3744 22.0351 54.4455 22.4813C54.7279 24.2384 55.7044 24.9704 57.8183 25.0017C58.4281 25.0109 59.0155 25.1105 59.5842 25.2064C59.8817 25.2561 60.1623 25.3041 60.4447 25.3391C62.8205 25.6341 63.3836 25.9586 63.4677 28.4698C63.5295 30.3302 63.4902 32.2145 63.4528 34.038L63.4322 35.0576C63.4041 36.5418 62.6353 37.3623 61.1444 37.4913C59.5674 37.6296 57.8464 37.9043 55.8784 38.3321C55.7998 38.3487 55.5005 38.4574 54.9749 39.1359C54.9188 39.2079 54.8682 39.3978 54.8252 39.5655C54.7504 39.8439 54.6587 40.1924 54.4342 40.4948C53.2015 42.1523 53.4091 43.5665 55.1264 45.2222C55.4033 45.4895 55.6072 45.7845 55.8036 46.0703C55.8765 46.1754 55.9476 46.2805 56.0243 46.3838L56.0412 46.4059C57.0345 47.7408 57.5807 48.4764 57.5265 49.3485C57.4704 50.2409 56.7857 50.9581 55.6502 52.1492C54.8046 53.036 53.8861 53.8657 52.9994 54.6678C52.5299 55.0937 52.0435 55.5325 51.5777 55.9731C50.5058 56.9854 49.3797 57.0185 48.2311 56.0764C47.2546 55.2744 46.1827 54.5276 45.1482 53.8067C44.7703 53.5431 44.3925 53.2794 44.0165 53.0139C43.8444 52.8922 43.6573 52.7816 43.4702 52.6765C43.1129 52.8203 42.7594 52.9604 42.4077 53.1006C41.1768 53.5892 40.0132 54.0519 38.8983 54.594C38.8515 54.7544 38.8123 55.0678 38.7898 55.2485C38.773 55.385 38.7561 55.5159 38.7374 55.6339C38.5129 57.0296 38.2548 58.6798 38.0528 60.3207C37.832 62.1128 36.6628 62.4945 35.7088 62.4945C35.6994 62.4945 35.6901 62.4945 35.6789 62.4945C33.2526 62.4742 30.802 62.4853 28.2972 62.5H28.2729L28.2691 62.4982ZM20.7846 51.3896C21.66 51.3896 22.6178 51.6864 23.6467 52.4552C23.7533 52.5345 23.9722 52.5935 24.1854 52.6525C24.4847 52.7337 24.8233 52.8258 25.1357 53.0287C25.4631 53.2388 26.2432 53.8141 26.4041 54.5958C26.7763 56.4064 27.0756 58.2557 27.2945 60.0939C27.388 60.8775 27.6294 61.025 28.2616 61.025H28.286C30.7964 61.0103 33.2507 61.0011 35.6882 61.0195C36.2532 61.0342 36.472 60.8923 36.5637 60.1437C36.7695 58.4788 37.0295 56.812 37.2558 55.4034C37.2727 55.302 37.2858 55.1895 37.3007 55.0715C37.3831 54.4023 37.4766 53.6445 38.0902 53.3402C39.3005 52.741 40.537 52.2506 41.8446 51.7306C42.3029 51.5481 42.7669 51.3637 43.2383 51.172L43.59 51.0282L43.9155 51.2236C43.9884 51.2679 44.0688 51.314 44.153 51.3619C44.3794 51.491 44.6357 51.6366 44.8882 51.8173C45.2586 52.081 45.6327 52.3428 46.0069 52.6027C47.0657 53.3402 48.1619 54.1054 49.1833 54.9425C49.7576 55.4126 50.0101 55.4071 50.5376 54.9074C51.0147 54.4576 51.5066 54.0114 51.9837 53.5818C52.8517 52.7982 53.7477 51.9869 54.5558 51.1388C55.3658 50.2888 56.0056 49.6177 56.0281 49.26C56.0486 48.9208 55.5641 48.2681 54.829 47.2798L54.8121 47.2577C54.7261 47.1415 54.6419 47.0198 54.5596 46.9C54.3968 46.664 54.2453 46.4428 54.0751 46.2787C51.834 44.1178 51.5459 41.8776 53.2221 39.6245C53.2782 39.5489 53.3287 39.359 53.3736 39.1931C53.4503 38.9073 53.5438 38.5496 53.7814 38.2417C54.3856 37.4618 54.9655 37.0193 55.551 36.8921C57.5807 36.4496 59.3672 36.1657 61.0078 36.0218C61.728 35.9592 61.9169 35.7545 61.93 35.0299L61.9506 34.0066C61.988 32.2034 62.0273 30.3375 61.9675 28.5178C61.9525 28.0845 61.9263 27.2806 61.7729 27.1276C61.6158 26.9708 60.86 26.8787 60.2539 26.8031C59.9396 26.7643 59.6291 26.7109 59.3279 26.6592C58.7929 26.5689 58.286 26.4822 57.7921 26.4749C54.9449 26.4306 53.3661 25.199 52.9658 22.7099C52.9358 22.5237 52.803 22.2895 52.6627 22.0425C52.4887 21.7364 52.2905 21.3898 52.2044 20.9823C52.0678 20.3518 52.0735 19.4575 52.4906 18.8362C53.4559 17.4054 54.5427 15.9378 55.914 14.2194C56.2918 13.7456 56.1964 13.6515 55.9383 13.399C54.0433 11.5386 52.1445 9.66166 50.2907 7.81974C50.04 7.57084 49.9035 7.4344 49.3142 7.88981C48.7792 8.30465 48.2236 8.69737 47.6867 9.07903C46.9815 9.57869 46.2519 10.0968 45.5897 10.6462C44.6039 11.4667 43.2476 12.2521 41.4892 11.0371C40.9504 10.6647 40.2096 10.3715 39.4034 10.2129C37.7516 9.88659 37.3924 8.70843 37.2652 7.71834C37.153 6.85177 37.0183 5.97046 36.8873 5.1168C36.7657 4.32951 36.6423 3.51642 36.5356 2.71069C36.4365 1.96582 36.2794 1.96766 35.8959 1.97135C33.5482 1.99532 31.0078 2.00085 27.9006 1.9861C27.562 1.9861 27.4198 1.98425 27.3357 2.63141C27.2552 3.23801 27.1542 3.84829 27.0569 4.43645C26.9091 5.33252 26.7558 6.25993 26.6791 7.16521C26.578 8.33968 26.1889 9.95113 23.9759 10.4028C23.2987 10.5411 22.5598 10.8509 21.7124 11.3487C20.7397 11.9221 19.896 11.8631 18.9756 11.1606C17.5445 10.0673 15.9975 8.91125 14.3831 7.85846C14.2634 7.78471 13.8893 7.74231 13.7265 7.77918C12.1252 9.24681 10.552 10.8048 9.03111 12.3111C8.64949 12.6873 8.26974 13.0652 7.88813 13.4414C7.67674 13.6497 7.57198 13.753 8.00037 14.2913C8.37637 14.7615 8.72432 15.2519 9.06104 15.7276C9.56238 16.4356 10.0375 17.1067 10.5913 17.7041C12.0373 19.2621 12.1757 20.8072 11.0159 22.4297C10.6867 22.8906 10.494 23.5359 10.3518 24.1075C10.0244 25.4092 9.22192 26.0748 7.82826 26.2057C6.12595 26.3642 4.40306 26.6316 2.70449 27.004C2.51555 27.0446 2.16012 27.3341 2.07033 27.4889C1.96744 30.0389 1.9637 32.7289 2.05723 35.4872C2.13767 35.6347 2.44633 35.8928 2.59038 35.9278C3.96906 36.2468 5.38516 36.4625 6.79939 36.5713C8.38011 36.693 10.2452 37.1465 10.6455 39.6116C10.739 40.1906 11.0832 40.8045 11.4424 41.3816C12.0971 42.4363 12.0298 43.384 11.2329 44.3648C10.7222 44.9917 10.2321 45.6647 9.7588 46.3155C9.22005 47.0567 8.66446 47.8219 8.06023 48.5446C7.59069 49.1051 7.63933 49.2895 8.08081 49.7265C9.85982 51.4854 11.4143 53.0526 12.8361 54.5221C13.3056 55.007 13.7097 55.2541 14.0389 55.2541C14.3326 55.2541 14.6731 55.0531 15.0491 54.6604C15.382 54.3138 15.7655 54.0667 16.1378 53.827C16.4165 53.6482 16.6784 53.4785 16.8842 53.2868C17.8588 52.3815 19.1795 51.3877 20.7808 51.3877L20.7846 51.3896ZM31.9095 43.4688C25.3696 43.4688 19.8025 38.0684 19.737 31.6392C19.7033 28.4293 20.9323 25.411 23.1959 23.1377C25.4949 20.8274 28.604 19.5405 31.9487 19.5128C31.9824 19.5128 32.018 19.5128 32.0516 19.5128C38.6308 19.5128 44.0221 24.8136 44.095 31.3774C44.1306 34.5561 42.8885 37.5706 40.6025 39.8624C38.3016 42.1689 35.2411 43.4503 31.9824 43.4706C31.9581 43.4706 31.9338 43.4706 31.9095 43.4706V43.4688ZM31.9618 20.9879C29.0174 21.0118 26.2825 22.1439 24.264 24.1702C22.2811 26.1614 21.2055 28.8091 21.2335 31.6226C21.2915 37.2572 26.174 41.9919 31.9095 41.9919C31.93 41.9919 31.9525 41.9919 31.9731 41.9919C34.8296 41.9753 37.5159 40.8506 39.5343 38.8262C41.5397 36.8147 42.6284 34.1744 42.5985 31.3903C42.5368 25.6341 37.8133 20.986 32.0516 20.986C32.0217 20.986 31.9918 20.986 31.9618 20.986V20.9879Z" mask="url(#path-1-outside-1_0_2502)" stroke="var(--stroke-0, black)"/>
</g>
</svg>