<?xml version="1.0" encoding="utf-8"?>
<svg xmlns="http://www.w3.org/2000/svg" fill="none" height="100%" overflow="visible" preserveAspectRatio="none" style="display: block;" viewBox="0 0 63 63.0634" width="100%">
<g id="Group">
<path d="M31.499 0.25C48.7287 0.25 62.7498 14.2814 62.75 31.5312C62.75 48.7813 48.7325 62.8135 31.499 62.8135H31.249V62.8076C14.1321 62.6727 0.250233 48.6966 0.25 31.5303C0.25 14.2803 14.2692 0.250025 31.499 0.25ZM31.499 2.2207C15.3539 2.22073 2.21898 15.3695 2.21875 31.5312C2.21875 47.6932 15.3556 60.8427 31.499 60.8428C47.6425 60.8428 60.7812 47.6932 60.7812 31.5312C60.781 15.3695 47.6442 2.2207 31.499 2.2207Z" fill="var(--fill-0, #19191B)" id="Vector" stroke="var(--stroke-0, black)" stroke-width="0.5"/>
<path d="M31.499 9.31526C32.0431 9.31526 32.4833 9.75657 32.4833 10.3006V31.1229L47.1943 45.8485C47.5781 46.2332 47.577 46.8555 47.1943 47.241V47.242C47.0022 47.4343 46.7497 47.5301 46.497 47.5301H46.247V47.495C46.0839 47.4522 45.9285 47.368 45.8007 47.2401L30.5878 32.0116L30.5146 31.9383V10.3006C30.5146 9.75661 30.9549 9.31533 31.499 9.31526Z" fill="var(--fill-0, #19191B)" id="Vector_2" stroke="var(--stroke-0, black)" stroke-width="0.5"/>
</g>
</svg>