<?xml version="1.0" encoding="utf-8"?>
<svg xmlns="http://www.w3.org/2000/svg" fill="none" height="100%" overflow="visible" preserveAspectRatio="none" style="display: block;" viewBox="0 0 63 63.0479" width="100%">
<g id="Group">
<path d="M9.96431 18.1511V46.7018L9.69283 46.6794C9.60483 46.6719 9.52176 46.6667 9.44088 46.6667C9.02697 46.6667 8.62479 46.7418 8.24752 46.8815L8.16158 46.6491H7.9106V18.1511H9.96431Z" fill="var(--fill-0, #19191B)" id="Vector" stroke="var(--stroke-0, black)" stroke-width="0.5"/>
<path d="M37.503 53.6944L37.5645 53.7335L38.7843 54.5118L39.1144 54.7218L38.7843 54.9327L37.5645 55.711L37.503 55.7501H16.6446L16.7696 55.4132C16.9093 55.0355 16.9854 54.6332 16.9854 54.2188C16.9854 54.1379 16.9781 54.0587 16.9718 53.9601L16.9552 53.6944H37.503Z" fill="var(--fill-0, #19191B)" id="Vector_2" stroke="var(--stroke-0, black)" stroke-width="0.5"/>
<path d="M49.3813 7.90658C52.8701 7.90658 55.7065 10.7469 55.7065 14.2386V37.5277L55.6674 37.5892L54.891 38.8099L54.6801 39.1419L54.4692 38.8099L53.6918 37.5892L53.6527 37.5277V14.2386C53.6527 11.88 51.7369 9.96224 49.3813 9.96224H18.1332V7.90658H49.3813Z" fill="var(--fill-0, #19191B)" id="Vector_3" stroke="var(--stroke-0, black)" stroke-width="0.5"/>
<path d="M54.1547 38.7821H55.2094V37.3818L55.2484 37.3212L60.8558 28.5058C61.1444 28.0506 61.7351 27.8984 62.2045 28.1503H62.2142L62.2758 28.1894C62.5816 28.3849 62.7504 28.7192 62.7504 29.0575C62.7504 29.2471 62.6983 29.4372 62.5912 29.6083L62.5902 29.6103L55.5492 40.6747V40.6757C55.3599 40.9701 55.034 41.1503 54.682 41.1503C54.3311 41.1503 54.0029 40.9709 53.8148 40.6747L46.7738 29.6103L46.7728 29.6093C46.4727 29.1343 46.6108 28.4964 47.0883 28.1903C47.5669 27.8838 48.2013 28.0262 48.5062 28.5058L54.1156 37.3202L54.1547 37.3818V38.7821Z" fill="var(--fill-0, #19191B)" id="Vector_4" stroke="var(--stroke-0, black)" stroke-width="0.5"/>
<path d="M55.7068 39.282H53.6531V36.5984L54.114 37.323L54.6795 38.2117L55.2459 37.3211L55.7068 36.5955V39.282Z" fill="var(--fill-0, #19191B)" id="Vector_5" stroke="var(--stroke-0, black)" stroke-width="0.5"/>
<path d="M28.1733 47.1216C28.4599 46.6733 29.0388 46.5234 29.5014 46.7544L29.5923 46.8062L40.6469 53.854L40.6479 53.855C40.942 54.0445 41.1216 54.3702 41.1216 54.7222C41.1215 55.0732 40.9421 55.4011 40.646 55.5894L29.5923 62.6382L29.5913 62.6392C29.42 62.7466 29.2278 62.7974 29.0405 62.7974C28.7022 62.7973 28.3705 62.6304 28.1733 62.3228C27.8675 61.8441 28.0096 61.209 28.4887 60.9038L37.2954 55.2886L37.3569 55.2495H38.7553V54.1929H37.3569L37.2954 54.1529L28.4887 48.5406C28.0116 48.2374 27.8674 47.6004 28.1733 47.1216Z" fill="var(--fill-0, #19191B)" id="Vector_6" stroke="var(--stroke-0, black)" stroke-width="0.5"/>
<path d="M39.2552 53.6944V55.7501H36.5745L37.2972 55.2892L38.1859 54.7218L37.2972 54.1554L36.5745 53.6944H39.2552Z" fill="var(--fill-0, #19191B)" id="Vector_7" stroke="var(--stroke-0, black)" stroke-width="0.5"/>
<path d="M18.6334 9.46199V14.6973C18.6333 16.8785 16.8608 18.6513 14.6832 18.6514H9.46448V16.5958H14.6832C15.7277 16.5957 16.5796 15.7434 16.5797 14.6973V9.46199H18.6334Z" fill="var(--fill-0, #19191B)" id="Vector_8" stroke="var(--stroke-0, black)" stroke-width="0.5"/>
<path d="M14.6826 0.25C16.8624 0.25 18.6328 2.02485 18.6328 4.2041V8.40625H16.5791V4.2041C16.5791 3.15787 15.7272 2.30566 14.6826 2.30566H4.2002C3.1556 2.30566 2.30371 3.15787 2.30371 4.2041V14.6973C2.30378 15.7434 3.15565 16.5957 4.2002 16.5957H8.41113V18.6514H4.2002C2.02043 18.6514 0.250068 16.8765 0.25 14.6973V4.2041C0.25 2.02274 2.0225 0.25 4.2002 0.25H14.6826Z" fill="var(--fill-0, #19191B)" id="Vector_9" stroke="var(--stroke-0, black)" stroke-width="0.5"/>
<path d="M18.6329 7.90658V9.96224H16.5792V7.90658H18.6329Z" fill="var(--fill-0, #19191B)" id="Vector_10" stroke="var(--stroke-0, black)" stroke-width="0.5"/>
<path d="M9.96431 16.5955V18.6512H7.9106V16.5955H9.96431Z" fill="var(--fill-0, #19191B)" id="Vector_11" stroke="var(--stroke-0, black)" stroke-width="0.5"/>
<path d="M8.41256 48.5245L8.31197 48.5997C8.23531 48.6568 8.16503 48.7154 8.10201 48.7785L4.00826 52.8771C3.26901 53.6154 3.26851 54.8202 4.00826 55.5607L8.10201 59.6593H8.10299C8.84035 60.3989 10.0431 60.3994 10.7827 59.6593L14.8774 55.5607L14.8794 55.5578C14.9407 55.4979 14.9955 55.4297 15.0571 55.3488L15.1323 55.2501H17.3647L17.2407 55.5861C17.0461 56.1145 16.7414 56.6025 16.3305 57.0138L12.2358 61.1124C11.4664 61.8826 10.4541 62.2686 9.44283 62.2687C8.43148 62.2687 7.41838 61.8827 6.64888 61.1124L2.55513 57.0138C1.80916 56.267 1.39797 55.2746 1.39791 54.2189C1.39791 53.163 1.80904 52.1698 2.55513 51.423L6.64888 47.3244C7.05979 46.913 7.5477 46.6081 8.07564 46.4132L8.41256 46.2892V48.5245Z" fill="var(--fill-0, #19191B)" id="Vector_12" stroke="var(--stroke-0, black)" stroke-width="0.5"/>
<path d="M9.73395 46.1807C10.6792 46.2492 11.56 46.6477 12.2359 47.3243L16.3306 51.4229C17.0064 52.0995 17.4048 52.9809 17.4732 53.9268L17.4927 54.1944H15.442L15.4136 53.9766C15.362 53.5738 15.1839 53.1839 14.8775 52.877L10.7828 48.7784C10.4824 48.4777 10.0998 48.2926 9.68415 48.2393L9.46638 48.211V46.1612L9.73395 46.1807Z" fill="var(--fill-0, #19191B)" id="Vector_13" stroke="var(--stroke-0, black)" stroke-width="0.5"/>
<path d="M17.4533 53.6944L17.4729 53.923C17.4809 54.0174 17.4875 54.1173 17.4875 54.2188C17.4875 54.6948 17.3998 55.156 17.2404 55.587L17.1799 55.7501H14.757L15.0559 55.3507C15.3553 54.9499 15.4745 54.455 15.4143 53.9757L15.3781 53.6944H17.4533Z" fill="var(--fill-0, #19191B)" id="Vector_14" stroke="var(--stroke-0, black)" stroke-width="0.5"/>
<path d="M9.96431 48.2746L9.68306 48.2394C9.59832 48.2286 9.52 48.2218 9.44088 48.2218C9.0279 48.2218 8.63676 48.3553 8.31002 48.5998L7.9106 48.8986V46.4738L8.07369 46.4132C8.50438 46.2536 8.96526 46.1662 9.44088 46.1662C9.54258 46.1662 9.64693 46.1745 9.73092 46.1798L9.96431 46.1955V48.2746Z" fill="var(--fill-0, #19191B)" id="Vector_15" stroke="var(--stroke-0, black)" stroke-width="0.5"/>
</g>
</svg>