<svg width="60" height="60" viewBox="0 0 60 60" fill="none" xmlns="http://www.w3.org/2000/svg">
<g clip-path="url(#clip0_21_437)">
<path d="M50.3708 59.4925L36.4213 45.5456L29.4301 57.0868C29.0746 57.6749 28.4038 57.9974 27.7221 57.9076C27.0404 57.8178 26.476 57.3341 26.2836 56.6745L14.6321 16.7906C14.4544 16.1823 14.623 15.5263 15.0701 15.0793C15.5172 14.6322 16.1751 14.4637 16.7817 14.6414L56.673 26.2907C57.3327 26.4831 57.8165 27.0474 57.9063 27.729C57.9961 28.4106 57.6736 29.0812 57.0853 29.4366L45.542 36.4266L59.4915 50.3735C59.8305 50.7125 59.9991 51.1559 59.9991 51.5993C59.9991 52.0427 59.8305 52.4861 59.4915 52.825L52.8228 59.4925C52.4984 59.8168 52.0568 60 51.5968 60C51.1368 60 50.6952 59.8168 50.3708 59.4925ZM55.8135 51.5993L41.5268 37.3152C41.2006 36.9872 41.0192 36.5457 41.0192 36.0895C41.0192 36.0198 41.0229 35.9502 41.032 35.8806C41.0962 35.3511 41.4004 34.882 41.8549 34.6053L51.9175 28.5114L18.847 18.8537L28.5065 51.9181L34.6016 41.8573C34.8783 41.4011 35.3474 41.0988 35.877 41.0346C36.4067 40.9705 36.9344 41.1537 37.3119 41.5293L51.5986 55.8134L55.8153 51.5974L55.8135 51.5993Z" fill="white"/>
<path d="M5.40201 6.58892L6.57862 5.41253C6.7833 5.20789 7.11515 5.20789 7.31983 5.41253L13.3791 11.4707C13.5838 11.6753 13.5838 12.0071 13.3791 12.2117L12.2025 13.3881C11.9978 13.5928 11.6659 13.5928 11.4613 13.3881L5.40201 7.32999C5.19733 7.12535 5.19733 6.79356 5.40201 6.58892Z" fill="white"/>
<path d="M19.1035 9.09152L19.1035 0.524017C19.1035 0.234611 19.3382 1.0257e-08 19.6276 2.29097e-08L21.2916 9.56441e-08C21.5811 1.08297e-07 21.8157 0.234611 21.8157 0.524018L21.8157 9.09152C21.8157 9.38093 21.5811 9.61554 21.2916 9.61554L19.6276 9.61554C19.3382 9.61554 19.1035 9.38093 19.1035 9.09152Z" fill="white"/>
<path d="M27.5448 11.4575L33.604 5.39934C33.8087 5.1947 34.1405 5.1947 34.3452 5.39934L35.5218 6.57573C35.7265 6.78037 35.7265 7.11216 35.5218 7.31681L29.4626 13.3749C29.2579 13.5796 28.926 13.5796 28.7214 13.3749L27.5448 12.1986C27.3401 11.9939 27.3401 11.6621 27.5448 11.4575Z" fill="white"/>
<path d="M5.4139 33.6093L11.4731 27.5512C11.6778 27.3466 12.0097 27.3466 12.2144 27.5512L13.391 28.7276C13.5956 28.9322 13.5956 29.264 13.391 29.4687L7.33171 35.5268C7.12703 35.7314 6.79518 35.7314 6.5905 35.5268L5.4139 34.3504C5.20922 34.1458 5.20922 33.814 5.4139 33.6093Z" fill="white"/>
<path d="M2.52706e-06 21.3034L2.59978e-06 19.6397C2.61243e-06 19.3503 0.234656 19.1157 0.524116 19.1157L9.09319 19.1157C9.38265 19.1157 9.6173 19.3503 9.6173 19.6397L9.6173 21.3034C9.6173 21.5928 9.38265 21.8274 9.09319 21.8274L0.524116 21.8274C0.234656 21.8274 2.51441e-06 21.5928 2.52706e-06 21.3034Z" fill="white"/>
</g>
<defs>
<clipPath id="clip0_21_437">
<rect width="60" height="60" fill="white" transform="matrix(-4.37114e-08 1 1 4.37114e-08 2.62268e-06 0)"/>
</clipPath>
</defs>
</svg>
