<?xml version="1.0" encoding="UTF-8"?>
<svg id="Calque_1" data-name="Calque 1" xmlns="http://www.w3.org/2000/svg" viewBox="0 0 1695.93 278.98">
  <defs>
    <style>
      .cls-1, .cls-2 {
        fill: #fff;
        stroke-width: 0px;
      }

      .cls-2 {
        fill-rule: evenodd;
      }
    </style>
  </defs>
  <g>
    <path class="cls-1" d="m816.89,113.44v64.09l8.23.03v-30.51h19.89v-8.07h-19.89v-17.47h25.89v-8.07h-34.12Zm48.98,13.01c2.98,0,5.37-2.42,5.37-5.37s-2.42-5.37-5.37-5.37-5.37,2.42-5.37,5.37,2.42,5.37,5.37,5.37Zm-4.18,8.07v43.01h8.23v-43.01h-8.23Z"/>
    <path class="cls-2" d="m900.49,133.27c-10.97,0-18.6,9.27-18.6,20.26s7.63,20.26,18.6,20.26c5.03,0,9.14-1.95,12.16-5.09v5.69c0,7.13-5.59,13.07-12.91,13.07-2.64,0-5.25-1.01-7.32-2.45l-4.15,7.16c3.3,2.14,7.23,3.36,11.44,3.36,11.69,0,21.15-9.46,21.15-21.14v-39.87h-8.2v3.83c-3.02-3.14-7.13-5.09-12.16-5.09Zm-10.34,20.26c0-6.82,5.22-12.19,11.25-12.19s11.25,5.37,11.25,12.19-5.22,12.19-11.25,12.19-11.25-5.37-11.25-12.19Z"/>
    <path class="cls-1" d="m950.61,141.34c-4.87,0-8.83,4.15-8.83,9.02v27.18h-8.23v-43.01h8.23v3.93c2.42-3.11,5.97-5.18,10.62-5.18,5.78,0,10.21,2.86,12.79,7.26,2.86-4.24,7.51-7.26,13.13-7.26,9.39,0,15.24,7.57,15.27,16.93v27.33h-8.23v-27.21c0-4.87-3.96-9.02-8.83-9.02s-8.83,4.15-8.83,9.02v27.21h-8.23v-27.21c-.03-4.87-3.99-8.99-8.86-8.99Z"/>
    <path class="cls-2" d="m1037.51,139.39c-3.68-3.8-8.7-6.13-14.52-6.13-12.25,0-20.99,10.4-20.99,22.78s8.7,22.78,20.99,22.78c5.81,0,10.84-2.36,14.52-6.13v4.84h8.23v-43.01h-8.23v4.87Zm-27.24,16.65c0-8.2,6.28-14.7,13.64-14.7s13.64,6.47,13.64,14.7-6.28,14.7-13.64,14.7c-7.35-.03-13.64-6.5-13.64-14.7Z"/>
    <path class="cls-1" d="m777.43,146.26c0-6.03,4.89-10.95,10.95-10.95s10.95,4.89,10.95,10.95-4.89,10.95-10.95,10.95-10.95-4.92-10.95-10.95Z"/>
    <path class="cls-1" d="m755.55,168.13c0-6.03,4.89-10.95,10.95-10.95h10.95v10.95c0,6.03-4.89,10.95-10.95,10.95s-10.95-4.89-10.95-10.95Z"/>
    <path class="cls-1" d="m777.43,113.44v21.87h10.95c6.03,0,10.95-4.89,10.95-10.95s-4.89-10.95-10.95-10.95h-10.95v.02Z"/>
    <path class="cls-1" d="m755.55,124.38c0,6.03,4.89,10.95,10.95,10.95h10.95v-21.9h-10.95c-6.06,0-10.95,4.89-10.95,10.95Z"/>
    <path class="cls-1" d="m755.55,146.26c0,6.03,4.89,10.95,10.95,10.95h10.95v-21.9h-10.95c-6.06,0-10.95,4.92-10.95,10.95Z"/>
  </g>
  <path class="cls-1" d="m482.45,142.84c0-2.32,1.91-3.22,5.06-3.22,4.53,0,10.24,1.37,14.77,3.81v-13.99c-4.94-1.97-9.83-2.74-14.77-2.74-12.09,0-20.13,6.31-20.13,16.85,0,16.44,22.63,13.82,22.63,20.9,0,2.74-2.38,3.63-5.72,3.63-4.94,0-11.26-2.02-16.26-4.76v14.17c5.54,2.38,11.14,3.39,16.26,3.39,12.39,0,20.9-6.13,20.9-16.79-.06-17.75-22.75-14.59-22.75-21.26Zm40.26-28.05l-14.53,3.1-.06,47.7c0,8.81,6.61,15.3,15.43,15.3,4.88,0,8.45-.89,10.42-1.97v-12.09c-1.9.77-11.31,3.51-11.31-5.3v-21.14h11.31v-12.68h-11.31l.06-12.92Zm29.78,17.33l-.95-4.41h-12.86v52.11h14.89v-35.31c3.51-4.59,9.47-3.75,11.31-3.1v-13.7c-1.9-.71-8.87-2.02-12.38,4.41Zm16.02-4.41h14.95v52.11h-14.95v-52.11Zm0-4.53l14.95-3.22v-12.09l-14.95,3.16v12.15Zm46.03,3.51c-5.83,0-9.59,2.74-11.67,4.65l-.77-3.69h-13.1v69.44l14.89-3.16.06-16.85c2.15,1.55,5.3,3.75,10.54,3.75,10.66,0,20.37-8.58,20.37-27.45-.06-17.27-9.89-26.68-20.31-26.68Zm-3.57,41.03c-3.51,0-5.6-1.25-7.03-2.8l-.06-22.09c1.55-1.73,3.69-2.92,7.09-2.92,5.42,0,9.17,6.07,9.17,13.88s-3.69,13.93-9.17,13.93Zm70.81-13.76c0-15.25-7.38-27.27-21.5-27.27s-22.75,12.03-22.75,27.16c0,17.92,10.12,26.98,24.65,26.98,7.09,0,12.45-1.61,16.5-3.87v-11.91c-4.05,2.02-8.69,3.28-14.59,3.28s-10.9-2.02-11.55-9.05h29.12c0-.77.12-3.87.12-5.3Zm-29.42-5.66c0-6.73,4.11-9.53,7.86-9.53s7.51,2.8,7.51,9.53h-15.37Z"/>
  <g>
    <path class="cls-1" d="m247.32,126.98c-6.62,0-13.13,2.82-18.12,8.41v-27.5h-9.82v46.32c0,15.02,12.21,27.23,27.24,27.23s27.24-12.2,27.24-27.23-11.5-27.23-26.53-27.23Zm-.71,43.98c-9.28,0-16.76-7.48-16.76-16.76s7.49-16.76,16.76-16.76,16.76,7.48,16.76,16.76c-.05,9.22-7.54,16.76-16.76,16.76Zm61.69-43.98c-6.62,0-13.13,2.82-18.12,8.41v-27.5h-9.82v46.32c0,15.02,12.21,27.23,27.24,27.23s27.24-12.2,27.24-27.23-11.5-27.23-26.53-27.23Zm-.7,43.98c-9.28,0-16.76-7.48-16.76-16.76s7.49-16.76,16.76-16.76,16.76,7.48,16.76,16.76-7.49,16.76-16.76,16.76Zm-143.66-11.99v-30.53h10.58v30.43c0,7.76,4.5,12.74,12.1,12.74s12.1-4.77,12.1-12.74v-30.43h10.63v30.53c0,14.1-8.57,22.45-22.73,22.45s-22.68-8.62-22.68-22.45Zm190,21.21h-10.58v-72.29h10.58v72.29Zm59.79-21.8h-40.42c1.52,8.08,7.22,13.56,17.2,13.56,5.86,0,12.97-2.22,17.58-5.59l4.39,7.76c-5.26,3.96-13.62,7.21-22.35,7.21-19.37,0-27.72-13.56-27.72-27.17,0-7.76,2.39-14.21,7.32-19.31,4.88-5.1,11.34-7.7,19.1-7.7s13.56,2.28,18.23,7c4.72,4.72,7.11,11.01,7.11,19.09-.11,1.52-.16,3.25-.43,5.15Zm-40.47-8.62h30.17c-.87-8.19-6.89-13.45-14.7-13.45s-13.89,5.37-15.46,13.45Zm-242.84-22.78c-6.62,0-13.13,2.82-18.12,8.41v-27.5h-9.82v46.32c0,15.02,12.21,27.23,27.24,27.23s27.24-12.2,27.24-27.23-11.5-27.23-26.53-27.23Zm-.71,43.98c-9.28,0-16.76-7.48-16.76-16.76s7.49-16.76,16.76-16.76,16.76,7.48,16.76,16.76-7.49,16.76-16.76,16.76Z"/>
    <path class="cls-1" d="m91.85,182c3.6,0,6.51-2.9,6.51-6.47s-2.92-6.47-6.51-6.47-6.51,2.9-6.51,6.47,2.92,6.47,6.51,6.47Z"/>
  </g>
  <g>
    <path class="cls-1" d="m1223.19,111.3c.04.5.08.81.08,1.13,0,2.54.02,5.08-.04,7.61-.03.98.34,1.22,1.26,1.2,3.19-.05,6.37-.02,9.65-.02v1.67c-.35.02-.73.07-1.11.07-2.86,0-5.73.04-8.59,0-.87-.01-1.2.22-1.2,1.14.03,14.64-.01,29.29.05,43.93.02,4.32,1.62,8,5.64,10.07,7.1,3.66,16.34-.19,16.43-9.74.17-17.91.03-35.81.08-53.72.01-3.86.86-7.56,3.17-10.77,2.79-3.87,6.8-5.6,11.35-6.32,1.25-.2,2.52-.29,3.78-.34.28-.01.57.33.86.51-.24.25-.44.64-.72.71-1.08.29-2.21.4-3.27.73-4,1.26-6.1,4.22-6.97,8.15-.24,1.08-.26,2.22-.27,3.34-.03,4.6-.01,9.21,0,13.81,0,.43,0,.86,0,1.45.33-.17.55-.25.73-.38,5.16-3.5,10.88-5.22,17.07-4.42,6.76.88,11.77,4.59,15.05,10.57,1.95,3.57,2.3,7.46,2.28,11.47-.06,8.73-.02,17.47.07,26.2.05,5.25,3.51,9.33,8.58,10.04,3.05.43,7.9-.96,10.09-4.74.36-.62.13-.88-.29-1.25-4.9-4.38-8.15-9.75-9.52-16.19-1.92-8.99-.21-17.27,5.28-24.66,4.78-6.44,11.27-10.29,19.15-11.48,13.39-2.03,26.11,4.98,31.84,17.28,5.4,11.6,2.8,25.62-6.52,34.48-4.85,4.61-10.66,7.24-17.34,7.94-6.7.71-12.85-.86-18.61-4.21-.43-.25-.75-.47-1.23-.04-3.76,3.32-8.28,4.26-13.13,4.13-3.99-.11-7.69-1.11-11.11-3.24-3.44-2.15-4.97-5.4-5.04-9.22-.15-9.24-.05-18.49-.08-27.73-.02-5.6-2.05-10.3-6.47-13.87-4.77-3.85-10.02-4.15-15.51-1.87-1.53.63-2.92,1.59-4.38,2.36-.7.37-.9.89-.9,1.67.02,11.13.02,22.26,0,33.39,0,2.72-.3,5.41-1.2,8.01-1.53,4.39-4.5,7.45-8.8,9.02-5.65,2.06-11.45,2.14-17.16.29-6.29-2.04-9.66-6.6-10.55-13.06-.22-1.61-.28-3.25-.28-4.87-.02-12.36,0-24.72,0-37.08q0-1.51-1.46-1.51c-4.06,0-8.12,0-12.18,0-.43,0-.86,0-1.38,0-.05.39-.13.69-.13,1,0,14.9-.02,29.8.04,44.7.02,4.43,2.18,7.78,5.83,10.21.3.2.6.39.91.58-.4.97-.94,1.01-1.79.54-4.39-2.41-8.27-5.36-10.83-9.77-1.33-2.29-2.06-4.76-2.05-7.44.02-12.8,0-25.59,0-38.39,0-.47,0-.93,0-1.57h-6.43l-.07-.33c.3-.14.58-.3.89-.41,2.99-1.06,5.79-2.44,8.24-4.51,6.5-5.5,3.81-14.01-2.38-16.78-6.46-2.88-12.94-2.87-19.24.47-6.7,3.55-9.22,10.47-6.49,17.55,1.45,3.74,3.7,6.95,6.64,9.68,5.79,5.36,9.11,11.94,9.88,19.83,1.31,13.44-6.7,26.94-20.6,31.26-9.49,2.95-18.42,1.37-26.51-4.4-6.83-4.87-10.91-11.61-12.16-19.83-2.23-14.7,5.95-28.31,19.74-33.01,6.87-2.34,13.73-2.08,20.52.47.51.19,1.09.2,1.64.29-.04-.59.05-1.22-.13-1.75-.87-2.55-1.55-5.12-1.57-7.83-.05-5.26,2.12-9.43,6.4-12.39,7.13-4.93,16.77-5.25,24.15-.78,3.36,2.04,5.14,5.16,5.27,9.09.11,3.55.06,7.1.03,10.66,0,.84.22,1.15,1.1,1.13,2.83-.05,5.66.01,8.48-.04.49,0,1.05-.27,1.45-.58,3.85-2.96,7.67-5.95,11.5-8.93.11-.09.23-.16.54-.39Zm126.26,45.69c-.06-6.84-1.91-12.99-5.34-18.62-4.06-6.66-9.5-11.73-17.15-14.07-7.93-2.43-16.03.73-20.07,7.88-2.91,5.14-3.69,10.72-2.96,16.49,1.04,8.14,4.36,15.27,10.11,21.17,4.33,4.44,9.39,7.59,15.73,8.22,6.38.63,11.5-1.68,15.32-6.76,3.22-4.28,4.28-9.26,4.35-14.31Zm-172.95-.72c-.18-7.81-2.88-15.2-7.96-21.69-4.15-5.3-9.3-9.25-16.04-10.62-6.87-1.4-12.74.5-17.1,6.08-4.3,5.52-5.23,12-4.39,18.72,1.11,8.81,4.9,16.36,11.46,22.42,4.08,3.77,8.77,6.36,14.42,6.88,6.66.61,11.88-1.93,15.66-7.35,2.92-4.18,3.89-8.96,3.95-14.44Z"/>
    <path class="cls-1" d="m1343.12,109.72c-.53,1.53-.92,3.12-1.6,4.57-1.57,3.32-4.56,4.65-8.18,3.98-4.06-.75-7.73-2.59-11.59-3.9-1.63-.55-3.33-.98-5.03-1.23-1.96-.29-3.45.59-4.32,2.4-.36.74-.58,1.56-.93,2.3-.11.22-.47.49-.67.46-.21-.03-.52-.39-.53-.62-.2-3.46,3.03-7.8,6.43-8.24,1.7-.22,3.58,0,5.22.5,3.62,1.11,7.13,2.58,10.73,3.8,1.28.44,2.66.66,4.02.81,1.87.22,3.19-.72,4.03-2.35.34-.67.68-1.37.86-2.1.22-.89.63-.95,1.57-.38Z"/>
    <path class="cls-1" d="m1107.76,142.92c-.3.35-.53.83-.91,1.04-4.14,2.3-8.31,4.55-12.47,6.82-.34.19-.68.38-1.23.69.82.42,1.47.77,2.13,1.09,3.87,1.88,7.74,3.76,11.62,5.61.59.28.85.6.55,1.34-2.35-1.11-4.67-2.19-6.98-3.28-2.68-1.27-5.36-2.53-8.02-3.83-.29-.14-.59-.52-.62-.83-.03-.26.24-.68.5-.82,4.96-2.69,9.93-5.36,14.9-8.02.06-.03.14-.03.21-.05.11.08.22.17.33.25Z"/>
    <path class="cls-1" d="m1390.56,151.46c-2.26-1.25-4.27-2.36-6.29-3.46-2.44-1.34-4.88-2.67-7.33-4-.54-.3-1.02-.6-.65-1.42,2.45,1.31,4.89,2.62,7.33,3.93,2.54,1.37,5.09,2.74,7.62,4.15.32.18.71.6.7.91,0,.3-.42.7-.75.86-4.75,2.29-9.52,4.55-14.28,6.81-.19.09-.4.13-.61.2-.4-.79.12-1.06.66-1.33,3.96-1.93,7.93-3.85,11.89-5.78.48-.23.96-.49,1.71-.88Z"/>
    <path class="cls-1" d="m1373.99,137.96c-.64,1.74-1.26,3.46-1.9,5.18-2.5,6.7-5,13.4-7.49,20.1-.21.57-.34,1.24-1.35.9.48-1.33.93-2.64,1.42-3.94,2.67-7.17,5.36-14.34,8.02-21.52.22-.6.44-1.06,1.31-.71Z"/>
  </g>
  <g>
    <g>
      <path class="cls-1" d="m1458.87,167.75l19.79-48.18h4.72l19.65,48.18h-7.08l-16.25-40.75h2.5l-16.32,40.75h-7.01Zm9.44-10.9v-5.69h25.34v5.69h-25.34Z"/>
      <path class="cls-1" d="m1510.25,167.75v-48.18h6.53v48.18h-6.53Zm4.37-18.75v-5.69h13.12c1.8,0,3.41-.37,4.82-1.11,1.41-.74,2.52-1.78,3.33-3.12.81-1.34,1.21-2.94,1.21-4.79s-.41-3.45-1.21-4.79c-.81-1.34-1.92-2.38-3.33-3.12-1.41-.74-3.02-1.11-4.82-1.11h-13.12v-5.69h13.47c2.96,0,5.62.6,7.98,1.81,2.36,1.2,4.22,2.9,5.59,5.1,1.36,2.2,2.05,4.8,2.05,7.81s-.68,5.55-2.05,7.78c-1.37,2.22-3.23,3.93-5.59,5.14-2.36,1.2-5.02,1.81-7.98,1.81h-13.47Z"/>
      <path class="cls-1" d="m1551.63,167.75v-48.18h6.53v48.18h-6.53Z"/>
    </g>
    <path class="cls-1" d="m1594.68,109.1v69.12h-162.35v-69.12h162.35m2.55-2.55h-167.44v74.21h167.44v-74.21h0Z"/>
  </g>
</svg>