<?xml version="1.0" encoding="utf-8"?>
<!-- Generator: Adobe Illustrator 28.0.0, SVG Export Plug-In . SVG Version: 6.00 Build 0)  -->
<svg version="1.1" id="Calque_1" xmlns="http://www.w3.org/2000/svg" xmlns:xlink="http://www.w3.org/1999/xlink" x="0px" y="0px"
	 viewBox="0 0 708.66 226.77" style="enable-background:new 0 0 708.66 226.77;" xml:space="preserve">
<style type="text/css">
	.st0{fill:#FFFFFF;}
</style>
<g>
	<g>
		<circle class="st0" cx="286.07" cy="47.8" r="12.3"/>
		<rect x="276.11" y="72.44" class="st0" width="19.66" height="87.93"/>
		<polygon class="st0" points="188.17,160.36 207.83,160.44 207.83,100.55 246.87,100.55 246.87,81.2 207.83,81.2 207.83,50.41 
			258.65,50.41 258.65,31.06 188.17,31.06 		"/>
		<path class="st0" d="M376.14,77.71c-6.15-5.06-13.77-7.73-22.12-7.73c-21.81,0-38.26,17.85-38.26,41.53
			c0,23.67,16.45,41.53,38.26,41.53c8.34,0,15.97-2.67,22.12-7.73v7.15c0,13.4-10.37,23.9-23.6,23.9c-4.46,0-9.21-1.6-13.37-4.5
			l-1.56-1.09l-9.93,17.15l1.4,0.9c6.95,4.5,15.04,6.88,23.4,6.88c23.85,0,43.26-19.4,43.26-43.25V72.45h-19.6V77.71z
			 M335.48,111.51c0-12.23,9.12-22.18,20.33-22.18c11.21,0,20.33,9.95,20.33,22.18c0,12.23-9.12,22.18-20.33,22.18
			C344.6,133.68,335.48,123.74,335.48,111.51z"/>
		<path class="st0" d="M506.8,69.98c-9.95,0-19.28,4.69-25.69,12.89c-5.79-8.32-14.71-12.89-25.19-12.89
			c-7.36,0-13.94,2.56-19.1,7.4v-4.93h-19.66v87.93h19.66v-55.09c0-8.65,7.13-15.95,15.58-15.95c8.57,0,15.59,7.13,15.64,15.89
			v55.16h19.66v-55.16c0-8.65,7.13-15.95,15.58-15.95s15.58,7.3,15.58,15.95v55.16h19.66v-55.41
			C538.45,84.37,525.41,69.98,506.8,69.98z"/>
		<path class="st0" d="M621.23,72.45v7.27c-7.42-6.29-16.88-9.74-26.74-9.74c-24.08,0-42.95,20.41-42.95,46.46
			s18.86,46.46,42.95,46.46c9.81,0,19.28-3.46,26.74-9.76v7.23h19.66V72.45H621.23z M621.29,116.44c0,14.95-11.22,27.11-25.01,27.11
			c-13.8-0.06-25.02-12.22-25.02-27.11c0-14.95,11.22-27.11,25.02-27.11C610.07,89.33,621.29,101.49,621.29,116.44z"/>
	</g>
	<path class="st0" d="M112.45,97.23c0-11.84,9.6-21.49,21.49-21.49c11.84,0,21.49,9.6,21.49,21.49c0,11.84-9.6,21.49-21.49,21.49
		C122.1,118.72,112.45,109.07,112.45,97.23z"/>
	<path class="st0" d="M69.52,140.15c0-11.84,9.6-21.49,21.49-21.49h21.49v21.49c0,11.84-9.6,21.49-21.49,21.49
		S69.52,152.04,69.52,140.15z"/>
	<path class="st0" d="M112.45,32.8v42.93h21.49c11.84,0,21.49-9.6,21.49-21.49c0-11.84-9.6-21.49-21.49-21.49h-21.49V32.8z"/>
	<path class="st0" d="M69.52,54.29c0,11.84,9.6,21.49,21.49,21.49h21.49V32.8H91.01C79.12,32.8,69.52,42.4,69.52,54.29z"/>
	<path class="st0" d="M69.52,97.23c0,11.84,9.6,21.49,21.49,21.49h21.49V75.74H91.01C79.12,75.74,69.52,85.39,69.52,97.23z"/>
</g>
</svg>
