<?xml version="1.0" encoding="utf-8"?>
<!-- Generator: Adobe Illustrator 28.0.0, SVG Export Plug-In . SVG Version: 6.00 Build 0)  -->
<svg version="1.1" id="Calque_1" xmlns="http://www.w3.org/2000/svg" xmlns:xlink="http://www.w3.org/1999/xlink" x="0px" y="0px"
	 viewBox="0 0 708.66 226.77" style="enable-background:new 0 0 708.66 226.77;" xml:space="preserve">
<style type="text/css">
	.st0{fill:#FFFFFF;}
	.st1{fill-rule:evenodd;clip-rule:evenodd;fill:#FFFFFF;}
</style>
<g>
	<path class="st0" d="M511,76c-16.14,2.44-29.23,10.29-38.9,23.32c-11.02,14.85-14.63,31.68-10.71,50.02
		c2.73,12.77,9.23,23.82,19.32,32.84c0.03,0.03,0.06,0.06,0.09,0.08c-4.03,6.8-12.77,8.89-17.72,8.2
		c-8.95-1.26-15.03-8.39-15.13-17.76c-0.2-19.24-0.24-36.05-0.14-51.4c0.05-7.25-0.47-15.71-4.72-23.48
		c-6.93-12.68-17.37-20-31.03-21.77c-11.44-1.48-22.6,1.17-33.19,7.89l-0.01-6.66c-0.01-6.49-0.01-13.2,0.02-19.79
		c0.01-2.15,0.06-4.23,0.48-6.14c1.7-7.7,5.73-12.45,12.32-14.52c1.03-0.33,2.13-0.53,3.29-0.75c1-0.19,2.03-0.38,3.06-0.66
		c1.03-0.28,1.64-1.07,2.04-1.6c0.09-0.12,0.18-0.25,0.28-0.35l1.7-1.77l-2.08-1.31c-0.12-0.07-0.23-0.17-0.35-0.26
		c-0.54-0.43-1.37-1.08-2.49-1.05c-2.11,0.09-4.9,0.26-7.65,0.69c-10.69,1.7-18.4,6.02-23.59,13.21c-4.42,6.13-6.58,13.43-6.61,22.3
		c-0.04,13.63-0.02,27.49-0.01,40.89c0.03,21.16,0.05,43.04-0.15,64.55c-0.07,7.52-3.26,13.57-8.99,17.02
		c-5.97,3.6-13.77,3.73-20.35,0.34c-6.59-3.4-9.95-9.45-9.99-18c-0.08-17.58-0.08-35.45-0.08-52.73c0-11.17,0-22.33-0.02-33.5
		c0-0.09,0-0.17,0.01-0.24c0.09,0,0.19-0.01,0.33,0c4.41,0.07,8.88,0.05,13.21,0.03l3.7-0.01c0.6,0,1.18-0.05,1.69-0.09
		c0.21-0.02,0.42-0.03,0.62-0.05l1.87-0.12v-7.16h-2c-1.78,0-3.55,0-5.31-0.01c-4.69-0.01-9.13-0.03-13.67,0.05
		c-0.19,0-0.34,0-0.45-0.01c0-0.08,0-0.18,0-0.3c0.1-3.8,0.09-7.65,0.09-11.38c0-1.2,0-2.41,0-3.61c0-0.49-0.04-0.96-0.09-1.49
		c-0.02-0.26-0.05-0.54-0.07-0.87l-0.26-3.54l-3.43,2.44c-0.28,0.19-0.44,0.31-0.6,0.43l-5.4,4.2c-5.62,4.38-11.43,8.9-17.17,13.31
		c-0.61,0.46-1.3,0.72-1.66,0.72c-2.85,0.05-5.76,0.05-8.57,0.05c-2.65,0-5.38-0.01-8.08,0.04c-0.04,0-0.08,0-0.12,0
		c0-0.06,0-0.13,0-0.21l0.02-2.51c0.06-6.05,0.11-12.32-0.08-18.49c-0.27-8.42-4.18-15.16-11.3-19.49
		c-15.06-9.14-34.98-8.5-49.57,1.59c-9.02,6.24-13.53,14.98-13.42,25.99c0.06,6.07,1.74,11.74,3.2,16c0.05,0.14,0.08,0.3,0.1,0.48
		c-0.17-0.04-0.32-0.08-0.46-0.13c-14.02-5.26-28.03-5.57-41.62-0.93c-28.14,9.6-44.62,37.15-40.08,66.99
		c2.56,16.85,10.87,30.39,24.69,40.25c11.08,7.91,22.83,11.87,35.09,11.87c6.11,0,12.35-0.99,18.7-2.96
		c27.01-8.4,44.6-35.09,41.84-63.46c-1.54-15.78-8.27-29.3-20.02-40.19c-5.66-5.25-9.88-11.39-12.53-18.25
		c-5.01-12.96-0.38-25.5,11.8-31.97c11.51-6.1,23.63-6.39,36.02-0.86c5.74,2.56,9.85,7.91,10.71,13.96
		c0.83,5.83-1.48,11.38-6.5,15.62c-4.15,3.5-9.08,6.2-15.54,8.49c-0.52,0.18-0.99,0.42-1.41,0.62c-0.17,0.08-0.34,0.16-0.5,0.24
		L242,79.59l0.79,3.79h12.24l0,21.08c0,18.45,0.01,36.9-0.02,55.35c-0.01,5.42,1.44,10.68,4.3,15.61
		c4.55,7.84,11.55,14.17,22.03,19.93c0.94,0.52,2.37,1.15,3.85,0.62c1.09-0.39,1.9-1.26,2.47-2.68l0.63-1.54l-1.96-1.25
		c-0.4-0.26-0.81-0.51-1.2-0.77c-6.97-4.64-10.53-10.82-10.56-18.38c-0.09-22.4-0.09-45.18-0.09-67.21l0-20.49l4.94,0
		c6.64,0,13.29-0.01,19.93,0c0.29,0,0.6,0,0.87,0c0.01,0.29,0.01,0.64,0.01,0.96l0,18.61c0,18.06-0.01,36.12,0.02,54.18
		c0.01,3.98,0.18,7.01,0.57,9.83c1.93,13.97,9.36,23.14,22.08,27.26c11.73,3.8,23.5,3.6,34.99-0.6c9.04-3.3,15.25-9.67,18.47-18.92
		c1.68-4.82,2.46-10.03,2.48-16.38c0.04-21.53,0.04-43.58-0.01-65.54c0-1.08,0.21-1.24,0.7-1.5c1.08-0.57,2.14-1.18,3.16-1.78
		c1.8-1.05,3.49-2.03,5.28-2.77c10.77-4.47,20.07-3.36,28.43,3.39c7.89,6.36,11.91,15,11.95,25.67c0.02,6.38,0.01,12.77,0,19.16
		c-0.02,11.57-0.04,23.53,0.16,35.3c0.14,8.59,3.89,15.42,10.82,19.75c6.81,4.25,14.27,6.43,22.81,6.66
		c11.41,0.31,19.96-2.36,26.97-8.44c0.05,0.03,0.1,0.06,0.14,0.08l0.13,0.07c12.09,7.04,24.79,9.9,37.75,8.53
		c13.62-1.44,25.46-6.87,35.21-16.13c19-18.06,24.33-46.18,13.24-69.98C563.94,86.01,537.97,71.91,511,76z M527.04,187.81
		c-10.8-1.07-20.5-6.15-29.65-15.54c-10.79-11.07-17.28-24.67-19.29-40.42c-1.47-11.53,0.4-22,5.56-31.13
		c5.79-10.23,16.04-16.04,27.21-16.04c3.24,0,6.56,0.49,9.87,1.5c13.43,4.11,24.07,12.86,32.53,26.74
		c6.74,11.07,10.08,22.69,10.2,35.49c-0.17,11.05-2.83,19.86-8.15,26.92C548.23,184.77,538.71,188.97,527.04,187.81z M187.66,187.83
		c-9.76-0.9-18.64-5.15-27.13-12.99c-12.37-11.43-19.73-25.82-21.86-42.78c-1.8-14.34,0.88-25.88,8.21-35.27
		c6.25-8.01,14.22-12.04,23.77-12.04c2.5,0,5.1,0.28,7.81,0.83c11.64,2.37,21.55,8.95,30.31,20.12
		c9.73,12.42,14.85,26.34,15.21,41.32c-0.13,11.69-2.41,20.09-7.39,27.23C209.51,184.37,199.78,188.94,187.66,187.83z"/>
	<path class="st0" d="M489.3,74.46c1.51,0.23,2.96-1.03,3.43-2.03c0.38-0.8,0.67-1.6,0.96-2.38c0.28-0.76,0.55-1.47,0.86-2.13
		c1.35-2.81,3.5-4.02,6.37-3.59c3.15,0.47,6.36,1.26,9.52,2.33c2.43,0.83,4.88,1.79,7.25,2.71c5.02,1.97,10.22,4,15.77,5.02
		c1.31,0.24,2.58,0.36,3.81,0.36c6.42,0,11.57-3.26,14.42-9.29c0.99-2.08,1.67-4.27,2.33-6.39c0.29-0.93,0.58-1.87,0.9-2.79
		l0.52-1.52l-1.36-0.84c-1.18-0.73-2.59-1.39-4.02-0.81c-1.51,0.62-1.91,2.24-2.05,2.77c-0.3,1.23-0.91,2.5-1.52,3.69
		c-1.37,2.68-3.3,3.84-5.9,3.54c-2.14-0.25-4.93-0.64-7.47-1.5c-2.89-0.98-5.82-2.07-8.65-3.12c-4.05-1.5-8.24-3.06-12.46-4.36
		c-3.69-1.13-7.63-1.51-11.1-1.06c-7.6,0.99-14.85,10.21-14.37,18.28C486.65,72.79,487.95,74.25,489.3,74.46z"/>
	<path class="st0" d="M90.26,124.59L90.26,124.59c0.9-0.5,1.46-1.29,1.91-1.92c0.14-0.2,0.27-0.39,0.42-0.57l1.36-1.6l-3.03-2.34
		l-0.9,0.19c-0.18,0.02-0.55,0.07-0.95,0.29l-3.1,1.66c-8.58,4.6-17.46,9.36-26.17,14.09c-1.1,0.6-2.18,2.15-2,3.61
		c0.15,1.25,1.13,2.59,2.33,3.18c4.72,2.31,9.55,4.6,14.22,6.8l1.55,0.73c3.17,1.5,6.35,2.99,9.55,4.5l6.07,2.85l0.79-1.96
		c0.53-1.31,0.97-3.73-2.08-5.18c-6.68-3.19-13.46-6.48-20.01-9.66l-2.78-1.35c-0.28-0.13-0.55-0.27-0.83-0.41l4.92-2.68
		C77.69,131.49,84.04,128.04,90.26,124.59z"/>
	<path class="st0" d="M648.47,134.27c-4.52-2.52-9.14-5.02-13.61-7.43l-1.37-0.74c-3.47-1.87-6.95-3.74-10.43-5.6l-5.86-3.14
		l-0.87,1.97c-0.99,2.24-0.27,4.04,2.16,5.36c4.8,2.61,9.59,5.23,14.38,7.85c2.7,1.48,5.4,2.97,8.24,4.54l0.8,0.44
		c-5.95,2.89-11.9,5.78-17.86,8.67l-5.46,2.65c-0.77,0.38-2.07,1-2.54,2.41c-0.3,0.9-0.19,1.87,0.33,2.9l0.77,1.52l1.63-0.53
		c0.11-0.04,0.22-0.07,0.32-0.1c0.32-0.09,0.71-0.2,1.11-0.39l2.36-1.12c8.43-4,17.14-8.14,25.68-12.26
		c1.03-0.5,2.57-1.82,2.61-3.44C650.91,136.22,649.46,134.82,648.47,134.27z"/>
	<path class="st0" d="M614.39,109.22c-1.18-0.47-2.2-0.51-3.1-0.11c-1.33,0.59-1.81,1.89-2.1,2.67c-3.38,9.1-6.77,18.19-10.16,27.28
		l-5.58,14.95c-0.65,1.75-1.28,3.51-1.91,5.28l-1.58,4.41l1.94,0.65c0.58,0.19,1.12,0.29,1.61,0.29c1.59,0,2.75-1,3.46-2.98
		l14.81-39.72c0.85-2.28,1.68-4.56,2.52-6.86l1.88-5.14L614.39,109.22z"/>
</g>
</svg>
