<?xml version="1.0" encoding="utf-8"?>
<!-- Generator: Adobe Illustrator 28.0.0, SVG Export Plug-In . SVG Version: 6.00 Build 0)  -->
<svg version="1.1" id="Calque_1" xmlns="http://www.w3.org/2000/svg" xmlns:xlink="http://www.w3.org/1999/xlink" x="0px" y="0px"
	 viewBox="0 0 708.66 226.77" style="enable-background:new 0 0 708.66 226.77;" xml:space="preserve">
<style type="text/css">
	.st0{fill:#FFFFFF;}
	.st1{fill-rule:evenodd;clip-rule:evenodd;fill:#FFFFFF;}
</style>
<g>
	<path class="st0" d="M276.07,58.09l-45.42,110.6h20.31l9.61-24.01h43.99l9.57,24.01h20.45l-45.1-110.6H276.07z M297.77,127.66
		h-30.38l15.22-38.03L297.77,127.66z"/>
	<path class="st0" d="M405.04,62.3c-5.49-2.8-11.75-4.22-18.6-4.22H344.9v110.6h18.86V127.4h22.68c6.85,0,13.11-1.42,18.6-4.22
		c5.55-2.83,9.99-6.91,13.2-12.14c3.21-5.23,4.84-11.39,4.84-18.3c0-7.01-1.63-13.2-4.85-18.39
		C415.03,69.19,410.59,65.13,405.04,62.3z M404.07,92.74c0,3.64-0.79,6.8-2.35,9.39c-1.59,2.62-3.7,4.61-6.46,6.05
		c-2.77,1.45-5.99,2.19-9.58,2.19h-21.92V75.11h21.92c3.58,0,6.81,0.74,9.58,2.19c2.76,1.45,4.88,3.43,6.46,6.05
		C403.28,85.95,404.07,89.11,404.07,92.74z"/>
	<rect x="436.03" y="58.09" class="st0" width="18.86" height="110.6"/>
	<path class="st0" d="M167.7,29.42v167.93h373.26V29.42H167.7z M177.8,187.26V39.52h353.06v147.74H177.8z"/>
</g>
</svg>
