<?xml version="1.0" encoding="UTF-8"?>
<svg id="Calque_1" data-name="Calque 1" xmlns="http://www.w3.org/2000/svg" viewBox="0 0 708.66 226.77">
  <defs>
    <style>
      .cls-1, .cls-2 {
        fill: #fff;
        stroke-width: 0px;
      }

      .cls-2 {
        fill-rule: evenodd;
      }
    </style>
  </defs>
  <path class="cls-1" d="m187.08,52.02v125.81l16.16.06v-59.88h39.04v-15.85h-39.04v-34.29h50.82v-15.85h-66.98Zm96.15,25.53c5.86,0,10.55-4.75,10.55-10.55s-4.75-10.55-10.55-10.55-10.55,4.75-10.55,10.55,4.75,10.55,10.55,10.55Zm-8.2,15.85v84.43h16.16v-84.43h-16.16Z"/>
  <path class="cls-2" d="m351.19,90.93c-21.52,0-36.51,18.19-36.51,39.78s14.99,39.78,36.51,39.78c9.87,0,17.95-3.82,23.87-9.99v11.16c0,14-10.98,25.65-25.35,25.65-5.18,0-10.3-1.97-14.37-4.81l-8.14,14.06c6.48,4.19,14.19,6.6,22.45,6.6,22.94,0,41.51-18.56,41.51-41.5v-78.26h-16.1v7.52c-5.92-6.17-14-9.99-23.87-9.99Zm-20.29,39.78c0-13.38,10.24-23.93,22.08-23.93s22.08,10.55,22.08,23.93-10.24,23.93-22.08,23.93-22.08-10.55-22.08-23.93Z"/>
  <path class="cls-1" d="m449.57,106.78c-9.56,0-17.33,8.14-17.33,17.7v53.34h-16.16v-84.43h16.16v7.71c4.75-6.11,11.72-10.18,20.85-10.18,11.35,0,20.04,5.61,25.1,14.25,5.61-8.33,14.74-14.25,25.78-14.25,18.44,0,29.91,14.86,29.97,33.24v53.65h-16.16v-53.41c0-9.56-7.77-17.7-17.33-17.7s-17.33,8.14-17.33,17.7v53.41h-16.16v-53.41c-.06-9.56-7.83-17.64-17.39-17.64Z"/>
  <path class="cls-2" d="m620.15,102.96c-7.22-7.46-17.08-12.03-28.49-12.03-24.05,0-41.2,20.41-41.2,44.71s17.08,44.71,41.2,44.71c11.41,0,21.28-4.62,28.49-12.03v9.5h16.16v-84.43h-16.16v9.56Zm-53.47,32.68c0-16.1,12.33-28.86,26.77-28.86s26.77,12.7,26.77,28.86-12.33,28.86-26.77,28.86c-14.43-.06-26.77-12.77-26.77-28.86Z"/>
  <path class="cls-1" d="m109.62,116.43c0-11.84,9.6-21.49,21.49-21.49s21.49,9.6,21.49,21.49-9.6,21.49-21.49,21.49-21.49-9.65-21.49-21.49Z"/>
  <path class="cls-1" d="m66.69,159.35c0-11.84,9.6-21.49,21.49-21.49h21.49v21.49c0,11.84-9.6,21.49-21.49,21.49s-21.49-9.6-21.49-21.49Z"/>
  <path class="cls-1" d="m109.62,52v42.93h21.49c11.84,0,21.49-9.6,21.49-21.49s-9.6-21.49-21.49-21.49h-21.49v.05Z"/>
  <path class="cls-1" d="m66.69,73.49c0,11.84,9.6,21.49,21.49,21.49h21.49v-42.98h-21.49c-11.89,0-21.49,9.6-21.49,21.49Z"/>
  <path class="cls-1" d="m66.69,116.43c0,11.84,9.6,21.49,21.49,21.49h21.49v-42.98h-21.49c-11.89,0-21.49,9.65-21.49,21.49Z"/>
</svg>