<?xml version="1.0" encoding="UTF-8"?>
<svg id="Calque_1" data-name="Calque 1" xmlns="http://www.w3.org/2000/svg" viewBox="0 0 708.66 226.77">
  <defs>
    <style>
      .cls-1 {
        fill: #fff;
        stroke-width: 0px;
      }
    </style>
  </defs>
  <path class="cls-1" d="m336.96,78.58c-12.99,0-25.77,5.54-35.57,16.5v-53.97h-19.28v90.91c0,29.49,23.96,53.44,53.46,53.44s53.46-23.95,53.46-53.44-22.58-53.44-52.08-53.44Zm-1.38,86.34c-18.21,0-32.91-14.69-32.91-32.9s14.7-32.89,32.91-32.89,32.91,14.69,32.91,32.89c-.11,18.1-14.8,32.9-32.91,32.9Zm121.08-86.34c-12.99,0-25.77,5.54-35.57,16.5v-53.97h-19.28v90.91c0,29.49,23.96,53.44,53.46,53.44s53.46-23.95,53.46-53.44-22.58-53.44-52.08-53.44Zm-1.38,86.34c-18.21,0-32.91-14.69-32.91-32.9s14.7-32.89,32.91-32.89,32.91,14.69,32.91,32.89-14.7,32.9-32.91,32.9Zm-282-23.53v-59.94h20.77v59.72c0,15.22,8.84,25.02,23.75,25.02s23.75-9.37,23.75-25.02v-59.72h20.87v59.94c0,27.68-16.83,44.07-44.62,44.07s-44.52-16.93-44.52-44.07Zm372.94,41.62h-20.77V41.11h20.77v141.91Zm117.36-42.8h-79.34c2.98,15.86,14.16,26.61,33.76,26.61,11.5,0,25.45-4.37,34.5-10.97l8.63,15.22c-10.33,7.77-26.73,14.16-43.88,14.16-38.02,0-54.42-26.61-54.42-53.33,0-15.22,4.69-27.89,14.38-37.9,9.58-10.01,22.26-15.12,37.49-15.12s26.62,4.47,35.78,13.73c9.27,9.26,13.95,21.61,13.95,37.47-.21,2.98-.32,6.39-.85,10.11Zm-79.45-16.93h59.21c-1.7-16.08-13.52-26.4-28.86-26.4s-27.26,10.54-30.35,26.4ZM107.46,78.58c-12.99,0-25.77,5.54-35.57,16.5v-53.97h-19.28v90.91c0,29.49,23.96,53.44,53.46,53.44s53.46-23.95,53.46-53.44-22.58-53.44-52.08-53.44Zm-1.38,86.34c-18.21,0-32.91-14.69-32.91-32.9s14.7-32.89,32.91-32.89,32.91,14.69,32.91,32.89-14.7,32.9-32.91,32.9Z"/>
  <path class="cls-1" d="m31.77,186.59c7.06,0,12.78-5.68,12.78-12.7s-5.72-12.7-12.78-12.7-12.78,5.68-12.78,12.7,5.72,12.7,12.78,12.7Z"/>
</svg>