<?xml version="1.0" encoding="UTF-8"?>
<svg id="Calque_1" data-name="Calque 1" xmlns="http://www.w3.org/2000/svg" viewBox="0 0 708.66 226.77">
  <defs>
    <style>
      .cls-1 {
        fill: #fff;
        stroke-width: 0px;
      }
    </style>
  </defs>
  <path class="cls-1" d="m159.24,109.72c0-4.56,3.74-6.31,9.94-6.31,8.88,0,20.1,2.69,28.99,7.48v-27.47c-9.7-3.86-19.29-5.38-28.99-5.38-23.73,0-39.51,12.39-39.51,33.08,0,32.26,44.42,27.12,44.42,41.03,0,5.38-4.67,7.13-11.22,7.13-9.7,0-22.09-3.97-31.91-9.35v27.82c10.87,4.68,21.86,6.66,31.91,6.66,24.31,0,41.03-12.04,41.03-32.96-.12-34.83-44.65-28.64-44.65-41.73Zm79.02-55.06l-28.52,6.08-.12,93.63c0,17.3,12.97,30.04,30.28,30.04,9.58,0,16.59-1.75,20.45-3.86v-23.73c-3.74,1.52-22.21,6.9-22.21-10.4v-41.5h22.21v-24.9h-22.21l.12-25.37Zm58.45,34.02l-1.87-8.65h-25.25v102.28h29.22v-69.32c6.9-9,18.59-7.36,22.21-6.08v-26.89c-3.74-1.4-17.41-3.97-24.31,8.65Zm31.45-8.65h29.34v102.28h-29.34v-102.28Zm0-8.88l29.34-6.31v-23.73l-29.34,6.2v23.85Zm90.35,6.9c-11.45,0-18.82,5.38-22.91,9.12l-1.52-7.25h-25.72v136.3l29.23-6.19.11-33.08c4.21,3.04,10.41,7.36,20.69,7.36,20.93,0,39.98-16.83,39.98-53.89-.12-33.9-19.41-52.37-39.87-52.37Zm-7.01,80.54c-6.9,0-10.99-2.45-13.8-5.49l-.11-43.37c3.03-3.39,7.25-5.73,13.91-5.73,10.64,0,18,11.92,18,27.24s-7.25,27.35-18,27.35Zm138.99-27c0-29.92-14.5-53.54-42.2-53.54s-44.65,23.61-44.65,53.3c0,35.18,19.87,52.95,48.39,52.95,13.91,0,24.44-3.16,32.38-7.6v-23.38c-7.94,3.97-17.06,6.43-28.63,6.43s-21.39-3.97-22.68-17.77h57.16c0-1.52.24-7.6.24-10.4Zm-57.75-11.11c0-13.21,8.07-18.7,15.43-18.7s14.73,5.49,14.73,18.7h-30.16Z"/>
</svg>