<?xml version="1.0" encoding="UTF-8"?>
<svg id="Calque_1" data-name="Calque 1" xmlns="http://www.w3.org/2000/svg" viewBox="0 0 708.66 226.77">
  <defs>
    <style>
      .cls-1 {
        fill: #fff;
        stroke-width: 0px;
      }
    </style>
  </defs>
  <path class="cls-1" d="m308.04,58.77c.07.98.16,1.6.16,2.21,0,4.98.04,9.96-.09,14.94-.05,1.93.66,2.39,2.48,2.36,6.25-.1,12.51-.04,18.95-.04v3.28c-.68.04-1.44.13-2.19.13-5.62.02-11.25.07-16.87-.02-1.71-.03-2.37.42-2.36,2.24.05,28.75-.03,57.49.1,86.24.04,8.48,3.18,15.7,11.07,19.77,13.94,7.19,32.08-.37,32.26-19.12.33-35.15.05-70.3.16-105.45.02-7.57,1.69-14.84,6.23-21.14,5.47-7.59,13.36-10.99,22.28-12.41,2.45-.39,4.95-.56,7.43-.67.54-.02,1.12.65,1.68,1-.47.48-.85,1.25-1.41,1.4-2.11.58-4.33.78-6.42,1.44-7.86,2.47-11.97,8.28-13.67,16-.47,2.12-.51,4.37-.53,6.56-.05,9.04-.02,18.07-.02,27.11,0,.84,0,1.69,0,2.85.65-.33,1.07-.49,1.44-.74,10.14-6.88,21.35-10.24,33.5-8.67,13.26,1.72,23.11,9,29.53,20.75,3.83,7.01,4.52,14.64,4.47,22.51-.12,17.14-.04,34.29.14,51.43.11,10.31,6.89,18.32,16.85,19.72,5.99.84,15.5-1.88,19.8-9.3.7-1.21.25-1.72-.56-2.45-9.61-8.6-16-19.15-18.69-31.77-3.77-17.65-.42-33.9,10.36-48.41,9.38-12.64,22.11-20.19,37.6-22.54,26.28-3.98,51.25,9.77,62.5,33.93,10.6,22.77,5.49,50.3-12.81,67.68-9.52,9.04-20.92,14.2-34.05,15.59-13.15,1.39-25.23-1.69-36.54-8.27-.85-.49-1.47-.93-2.42-.09-7.38,6.52-16.25,8.36-25.77,8.1-7.83-.21-15.1-2.18-21.8-6.36-6.75-4.21-9.76-10.6-9.88-18.09-.3-18.14-.09-36.29-.16-54.43-.04-11-4.03-20.23-12.69-27.22-9.37-7.56-19.66-8.15-30.45-3.68-2.99,1.24-5.72,3.11-8.61,4.63-1.37.72-1.77,1.74-1.77,3.27.04,21.84.05,43.69,0,65.53,0,5.35-.59,10.62-2.36,15.73-3,8.62-8.82,14.62-17.27,17.7-11.08,4.05-22.47,4.21-33.69.57-12.35-4-18.97-12.96-20.72-25.63-.44-3.15-.55-6.37-.55-9.56-.04-24.26-.02-48.53-.02-72.79q0-2.96-2.87-2.97c-7.97,0-15.94,0-23.92,0-.85,0-1.69,0-2.71,0-.1.76-.25,1.36-.25,1.97,0,29.24-.04,58.49.08,87.73.04,8.7,4.29,15.27,11.45,20.03.58.39,1.18.76,1.78,1.14-.78,1.91-1.84,1.98-3.51,1.06-8.61-4.72-16.24-10.51-21.26-19.18-2.61-4.5-4.04-9.34-4.03-14.6.04-25.12.02-50.24.02-75.35,0-.91,0-1.83,0-3.07h-12.61l-.13-.64c.58-.27,1.15-.58,1.75-.8,5.87-2.08,11.37-4.79,16.17-8.85,12.77-10.8,7.49-27.51-4.68-32.94-12.68-5.66-25.39-5.64-37.77.92-13.15,6.98-18.11,20.56-12.73,34.45,2.84,7.34,7.26,13.64,13.03,18.99,11.36,10.53,17.88,23.44,19.39,38.92,2.57,26.38-13.16,52.88-40.44,61.36-18.62,5.79-36.16,2.7-52.04-8.63-13.4-9.56-21.42-22.78-23.88-38.92-4.39-28.86,11.68-55.56,38.75-64.8,13.49-4.6,26.95-4.08,40.27.91,1,.38,2.14.39,3.21.58-.07-1.15.11-2.39-.25-3.44-1.71-5-3.04-10.06-3.09-15.38-.11-10.32,4.17-18.52,12.56-24.32,13.99-9.68,32.92-10.31,47.4-1.52,6.6,4.01,10.09,10.13,10.34,17.84.22,6.97.12,13.94.06,20.92-.01,1.64.44,2.26,2.16,2.23,5.55-.09,11.1.02,16.65-.09.96-.02,2.05-.53,2.84-1.14,7.56-5.8,15.06-11.67,22.58-17.52.22-.17.45-.32,1.07-.76Zm247.83,89.69c-.12-13.43-3.75-25.5-10.49-36.56-7.97-13.08-18.65-23.02-33.66-27.61-15.57-4.76-31.47,1.44-39.4,15.47-5.71,10.09-7.25,21.04-5.8,32.37,2.04,15.98,8.55,29.98,19.85,41.56,8.5,8.72,18.43,14.89,30.88,16.13,12.52,1.24,22.58-3.29,30.07-13.26,6.31-8.39,8.4-18.18,8.55-28.09Zm-339.49-1.41c-.36-15.33-5.65-29.84-15.63-42.58-8.15-10.39-18.25-18.15-31.49-20.85-13.49-2.75-25,.98-33.56,11.94-8.45,10.83-10.28,23.55-8.62,36.75,2.17,17.29,9.62,32.12,22.49,44,8,7.39,17.21,12.49,28.31,13.51,13.08,1.2,23.31-3.78,30.74-14.43,5.73-8.2,7.63-17.59,7.75-28.35Z"/>
  <path class="cls-1" d="m543.45,55.66c-1.04,3.01-1.8,6.13-3.15,8.97-3.08,6.51-8.95,9.13-16.06,7.82-7.97-1.46-15.17-5.09-22.74-7.66-3.2-1.09-6.53-1.92-9.87-2.42-3.85-.58-6.77,1.17-8.47,4.7-.7,1.46-1.14,3.05-1.83,4.52-.21.44-.92.96-1.32.9-.42-.06-1.02-.77-1.04-1.22-.4-6.78,5.94-15.31,12.63-16.17,3.34-.43,7.02,0,10.26.98,7.11,2.18,14,5.07,21.06,7.46,2.52.85,5.23,1.29,7.89,1.59,3.68.42,6.27-1.42,7.91-4.61.68-1.32,1.33-2.69,1.68-4.12.43-1.74,1.23-1.87,3.07-.74Z"/>
  <path class="cls-1" d="m81.47,120.82c-.59.69-1.04,1.62-1.78,2.03-8.13,4.51-16.32,8.93-24.48,13.38-.67.37-1.33.75-2.41,1.36,1.62.83,2.89,1.5,4.18,2.13,7.59,3.68,15.19,7.38,22.8,11.01,1.16.55,1.67,1.18,1.08,2.63-4.61-2.17-9.16-4.3-13.7-6.44-5.26-2.49-10.52-4.97-15.75-7.53-.56-.28-1.15-1.03-1.23-1.62-.06-.5.47-1.34.97-1.61,9.73-5.29,19.5-10.51,29.26-15.75.12-.06.27-.06.4-.09.21.16.43.33.64.49Z"/>
  <path class="cls-1" d="m636.57,137.6c-4.44-2.44-8.39-4.63-12.34-6.8-4.79-2.63-9.58-5.25-14.38-7.86-1.07-.58-2-1.18-1.28-2.79,4.8,2.58,9.6,5.14,14.39,7.72,5,2.7,10,5.38,14.95,8.15.63.35,1.39,1.19,1.38,1.78-.01.58-.83,1.37-1.48,1.68-9.32,4.5-18.68,8.94-28.03,13.38-.37.18-.79.26-1.2.39-.78-1.54.24-2.09,1.3-2.6,7.78-3.78,15.57-7.55,23.35-11.34.95-.46,1.88-.96,3.35-1.72Z"/>
  <path class="cls-1" d="m604.05,111.09c-1.25,3.42-2.48,6.8-3.73,10.16-4.9,13.15-9.81,26.3-14.71,39.45-.42,1.12-.67,2.43-2.66,1.76.93-2.6,1.83-5.18,2.78-7.74,5.25-14.08,10.51-28.15,15.74-42.24.44-1.18.86-2.09,2.58-1.4Z"/>
</svg>