<?xml version="1.0" encoding="UTF-8"?>
<svg id="Calque_1" data-name="Calque 1" xmlns="http://www.w3.org/2000/svg" viewBox="0 0 708.66 226.77">
  <defs>
    <style>
      .cls-1 {
        fill: #fff;
        stroke-width: 0px;
      }
    </style>
  </defs>
  <g>
    <path class="cls-1" d="m241.24,169.56l38.84-94.58h9.27l38.57,94.58h-13.9l-31.89-80h4.91l-32.03,80h-13.76Zm18.53-21.4v-11.17h49.74v11.17h-49.74Z"/>
    <path class="cls-1" d="m342.09,169.56v-94.58h12.81v94.58h-12.81Zm8.59-36.79v-11.18h25.76c3.54,0,6.7-.73,9.47-2.18,2.77-1.45,4.95-3.5,6.54-6.13,1.59-2.63,2.38-5.77,2.38-9.4s-.8-6.77-2.38-9.4c-1.59-2.63-3.77-4.68-6.54-6.13-2.77-1.45-5.93-2.18-9.47-2.18h-25.76v-11.17h26.44c5.81,0,11.04,1.18,15.67,3.54,4.63,2.36,8.29,5.7,10.97,10.02,2.68,4.32,4.02,9.43,4.02,15.33s-1.34,10.9-4.02,15.26c-2.68,4.36-6.34,7.72-10.97,10.08-4.63,2.36-9.86,3.54-15.67,3.54h-26.44Z"/>
    <path class="cls-1" d="m423.31,169.56v-94.58h12.81v94.58h-12.81Z"/>
  </g>
  <path class="cls-1" d="m507.83,54.43v135.68H189.16V54.43h318.67m5-5H184.16v145.68h328.67V49.43h0Z"/>
</svg>